<svg width="25" height="24" viewBox="0 0 25 24" fill="none" xmlns="http://www.w3.org/2000/svg">
<path d="M5.00479 10.2263C5.00434 10.0019 5.08579 9.78439 5.235 9.61158C5.31903 9.51432 5.42222 9.43392 5.53868 9.37499C5.65513 9.31606 5.78256 9.27976 5.91365 9.26816C6.04475 9.25656 6.17694 9.26989 6.30266 9.30739C6.42838 9.3449 6.54515 9.40583 6.64629 9.48671L12.0112 13.7899L17.3861 9.6404C17.4885 9.56061 17.6063 9.50103 17.7328 9.46507C17.8592 9.42912 17.9918 9.4175 18.123 9.43089C18.2541 9.44428 18.3812 9.48241 18.497 9.54309C18.6127 9.60377 18.7148 9.6858 18.7974 9.78447C18.8885 9.88386 18.9573 10.0002 18.9993 10.1263C19.0413 10.2524 19.0557 10.3855 19.0416 10.5171C19.0275 10.6488 18.9852 10.7763 18.9174 10.8915C18.8495 11.0068 18.7575 11.1073 18.6473 11.1868L12.6418 15.8262C12.4627 15.9675 12.238 16.0447 12.0062 16.0447C11.7744 16.0447 11.5497 15.9675 11.3706 15.8262L5.36512 11.0236C5.24399 10.9272 5.14824 10.8048 5.08564 10.6663C5.02303 10.5278 4.99533 10.377 5.00479 10.2263Z" fill="#111827"/>
</svg>
