<svg width="21" height="20" viewBox="0 0 21 20" fill="none" xmlns="http://www.w3.org/2000/svg">
<path d="M10.2093 13.3333C10.0146 13.3337 9.82589 13.2658 9.67596 13.1416L4.67596 8.97495C4.50578 8.8335 4.39876 8.63024 4.37844 8.40988C4.35813 8.18953 4.42618 7.97013 4.56763 7.79994C4.70908 7.62976 4.91233 7.52274 5.13269 7.50243C5.35305 7.48211 5.57245 7.55016 5.74263 7.69161L10.2093 11.4249L14.676 7.82495C14.7612 7.75572 14.8593 7.70403 14.9646 7.67284C15.0698 7.64164 15.1803 7.63157 15.2894 7.64318C15.3986 7.6548 15.5045 7.68788 15.6008 7.74052C15.6972 7.79317 15.7822 7.86434 15.851 7.94994C15.9273 8.03563 15.9851 8.13615 16.0207 8.24521C16.0564 8.35427 16.0691 8.46952 16.0582 8.58374C16.0472 8.69796 16.0128 8.80869 15.9571 8.90899C15.9014 9.00928 15.8255 9.09699 15.7343 9.16661L10.7343 13.1916C10.5801 13.2962 10.3952 13.3461 10.2093 13.3333Z" fill="white"/>
</svg>
