<svg width="25" height="26" viewBox="0 0 25 26" fill="none" xmlns="http://www.w3.org/2000/svg">
<path d="M13.64 13.0782L18.0138 8.57964C18.2053 8.38218 18.3129 8.11437 18.3129 7.83513C18.3129 7.55588 18.2053 7.28807 18.0138 7.09061C17.8222 6.89316 17.5625 6.78223 17.2916 6.78223C17.0207 6.78223 16.7609 6.89316 16.5694 7.09061L12.2058 11.5996L7.84224 7.09061C7.65071 6.89316 7.39093 6.78223 7.12007 6.78223C6.8492 6.78223 6.58942 6.89316 6.39789 7.09061C6.20635 7.28807 6.09875 7.55588 6.09875 7.83513C6.09875 8.11437 6.20635 8.38218 6.39789 8.57964L10.7716 13.0782L6.39789 17.5767C6.30255 17.6742 6.22688 17.7902 6.17524 17.918C6.1236 18.0457 6.09702 18.1828 6.09702 18.3212C6.09702 18.4597 6.1236 18.5967 6.17524 18.7245C6.22688 18.8523 6.30255 18.9683 6.39789 19.0657C6.49244 19.164 6.60494 19.242 6.72889 19.2953C6.85284 19.3485 6.98579 19.3759 7.12007 19.3759C7.25434 19.3759 7.38729 19.3485 7.51124 19.2953C7.63519 19.242 7.74769 19.164 7.84224 19.0657L12.2058 14.5567L16.5694 19.0657C16.664 19.164 16.7765 19.242 16.9004 19.2953C17.0244 19.3485 17.1573 19.3759 17.2916 19.3759C17.4259 19.3759 17.5588 19.3485 17.6828 19.2953C17.8067 19.242 17.9192 19.164 18.0138 19.0657C18.1091 18.9683 18.1848 18.8523 18.2364 18.7245C18.288 18.5967 18.3146 18.4597 18.3146 18.3212C18.3146 18.1828 18.288 18.0457 18.2364 17.918C18.1848 17.7902 18.1091 17.6742 18.0138 17.5767L13.64 13.0782Z" fill="#666666"/>
</svg>
