<svg width="12" height="14" viewBox="0 0 12 14" fill="none" xmlns="http://www.w3.org/2000/svg">
<path d="M0.666656 1.66683C0.666656 0.93045 1.26361 0.333496 1.99999 0.333496H7.33332C7.51013 0.333496 7.6797 0.403734 7.80473 0.528758L11.1381 3.86209C11.2631 3.98712 11.3333 4.15668 11.3333 4.3335V12.3335C11.3333 13.0699 10.7364 13.6668 9.99999 13.6668H1.99999C1.26361 13.6668 0.666656 13.0699 0.666656 12.3335V1.66683ZM9.72385 4.3335L7.33332 1.94297V4.3335H9.72385ZM5.99999 1.66683L1.99999 1.66683V12.3335H9.99999V5.66683H6.66666C6.29847 5.66683 5.99999 5.36835 5.99999 5.00016V1.66683ZM3.33332 7.66683C3.33332 7.29864 3.6318 7.00016 3.99999 7.00016H7.99999C8.36818 7.00016 8.66666 7.29864 8.66666 7.66683C8.66666 8.03502 8.36818 8.3335 7.99999 8.3335H3.99999C3.6318 8.3335 3.33332 8.03502 3.33332 7.66683ZM3.33332 10.3335C3.33332 9.96531 3.6318 9.66683 3.99999 9.66683H7.99999C8.36818 9.66683 8.66666 9.96531 8.66666 10.3335C8.66666 10.7017 8.36818 11.0002 7.99999 11.0002H3.99999C3.6318 11.0002 3.33332 10.7017 3.33332 10.3335Z" fill="#111827"/>
</svg>
