<svg width="18" height="14" viewBox="0 0 18 14" fill="none" xmlns="http://www.w3.org/2000/svg">
<path d="M14.3906 0H2.87813C2.1148 0 1.38274 0.243358 0.842984 0.676537C0.30323 1.10972 0 1.69723 0 2.30984V11.5492C0 12.1618 0.30323 12.7493 0.842984 13.1825C1.38274 13.6157 2.1148 13.859 2.87813 13.859H14.3906C15.154 13.859 15.886 13.6157 16.4258 13.1825C16.9655 12.7493 17.2688 12.1618 17.2688 11.5492V2.30984C17.2688 1.69723 16.9655 1.10972 16.4258 0.676537C15.886 0.243358 15.154 0 14.3906 0ZM2.87813 1.53989H14.3906C14.6451 1.53989 14.8891 1.62101 15.069 1.76541C15.2489 1.9098 15.35 2.10564 15.35 2.30984V8.7466L12.28 6.64464C11.8043 6.33054 11.2075 6.1588 10.5915 6.1588C9.97552 6.1588 9.37866 6.33054 8.903 6.64464L1.91875 11.3182V2.30984C1.91875 2.10564 2.01983 1.9098 2.19974 1.76541C2.37966 1.62101 2.62368 1.53989 2.87813 1.53989ZM14.3906 12.3192H3.41538L10.131 7.82266C10.26 7.74578 10.4164 7.70427 10.5771 7.70427C10.7378 7.70427 10.8942 7.74578 11.0232 7.82266L15.35 10.7793V11.5492C15.35 11.7534 15.2489 11.9492 15.069 12.0936C14.8891 12.238 14.6451 12.3192 14.3906 12.3192Z" fill="#666666"/>
<path d="M4.74877 5.19714C5.46406 5.19714 6.04393 4.61543 6.04393 3.89786C6.04393 3.18028 5.46406 2.59857 4.74877 2.59857C4.03347 2.59857 3.45361 3.18028 3.45361 3.89786C3.45361 4.61543 4.03347 5.19714 4.74877 5.19714Z" fill="#666666"/>
</svg>
