<svg width="21" height="20" viewBox="0 0 21 20" fill="none" xmlns="http://www.w3.org/2000/svg">
<path d="M20.0032 9.71761L19.6103 4.01122C19.5473 3.09713 18.8668 2.34497 17.9635 2.19124L12.3526 1.2363C11.8089 1.14376 11.2512 1.28168 10.8132 1.61697L1.7564 8.5514C0.819876 9.26845 0.711827 10.6393 1.52445 11.4942L7.32569 17.5974C8.03195 18.3405 9.18794 18.4233 9.99288 17.7884L20.0032 9.89374" stroke="#111827" stroke-width="1.80181" stroke-linecap="round"/>
<path d="M16.171 5.88378C16.171 6.52613 15.5715 7.15726 14.6887 7.15726C13.8058 7.15726 13.2064 6.52613 13.2064 5.88378C13.2064 5.24144 13.8058 4.6103 14.6887 4.6103C15.5715 4.6103 16.171 5.24144 16.171 5.88378Z" stroke="#111827" stroke-width="1.28701"/>
</svg>
