<svg width="15" height="11" viewBox="0 0 15 11" fill="none" xmlns="http://www.w3.org/2000/svg">
<path d="M5.02861 0.361766C5.15363 0.236742 5.3232 0.166504 5.50001 0.166504H9.50001C9.67682 0.166504 9.84639 0.236742 9.97141 0.361766L11.1095 1.49984H12.8333C13.5697 1.49984 14.1667 2.09679 14.1667 2.83317V9.49984C14.1667 10.2362 13.5697 10.8332 12.8333 10.8332H2.16668C1.4303 10.8332 0.833344 10.2362 0.833344 9.49984V2.83317C0.833344 2.09679 1.4303 1.49984 2.16668 1.49984H3.89053L5.02861 0.361766ZM5.77615 1.49984L4.63808 2.63791C4.51306 2.76293 4.34349 2.83317 4.16668 2.83317L2.16668 2.83317V9.49984H12.8333V2.83317H10.8333C10.6565 2.83317 10.487 2.76293 10.3619 2.63791L9.22387 1.49984H5.77615ZM7.50001 4.49984C6.76363 4.49984 6.16668 5.09679 6.16668 5.83317C6.16668 6.56955 6.76363 7.1665 7.50001 7.1665C8.23639 7.1665 8.83334 6.56955 8.83334 5.83317C8.83334 5.09679 8.23639 4.49984 7.50001 4.49984ZM4.83334 5.83317C4.83334 4.36041 6.02725 3.1665 7.50001 3.1665C8.97277 3.1665 10.1667 4.36041 10.1667 5.83317C10.1667 7.30593 8.97277 8.49984 7.50001 8.49984C6.02725 8.49984 4.83334 7.30593 4.83334 5.83317Z" fill="#111827"/>
</svg>
