<svg width="155" height="158" viewBox="0 0 155 158" fill="none" xmlns="http://www.w3.org/2000/svg">
<path d="M76.811 148.548C77.1137 149.895 78.4512 150.742 79.7983 150.439C81.1454 150.136 81.992 148.799 81.6893 147.452L76.811 148.548ZM8.77089 97.9846C7.65781 98.8016 7.41776 100.366 8.23471 101.479L21.5478 119.618C22.3648 120.731 23.9294 120.971 25.0425 120.154C26.1555 119.337 26.3956 117.773 25.5786 116.659L13.7448 100.536L29.868 88.7023C30.9811 87.8853 31.2212 86.3207 30.4042 85.2077C29.5872 84.0946 28.0226 83.8545 26.9095 84.6715L8.77089 97.9846ZM15.2856 103.397C16.6423 103.654 17.9501 102.762 18.2068 101.405C18.4635 100.049 17.5719 98.7409 16.2152 98.4842L15.2856 103.397ZM27.2621 101.019C25.9301 100.655 24.5557 101.44 24.1922 102.772C23.8287 104.104 24.6138 105.479 25.9458 105.842L27.2621 101.019ZM36.3098 109.193C37.6011 109.682 39.0442 109.031 39.5331 107.74C40.0221 106.449 39.3717 105.006 38.0804 104.517L36.3098 109.193ZM48.5107 109.149C47.2845 108.514 45.776 108.994 45.1414 110.22C44.5069 111.447 44.9865 112.955 46.2128 113.59L48.5107 109.149ZM55.4242 119.175C56.5503 119.974 58.1108 119.709 58.9098 118.583C59.7087 117.457 59.4436 115.896 58.3175 115.097L55.4242 119.175ZM67.1564 122.513C66.1783 121.539 64.5954 121.542 63.6209 122.52C62.6464 123.498 62.6493 125.081 63.6274 126.056L67.1564 122.513ZM70.4123 134.235C71.1835 135.381 72.7371 135.684 73.8824 134.913C75.0276 134.142 75.3309 132.588 74.5597 131.443L70.4123 134.235ZM79.9707 141.796C79.4799 140.505 78.0358 139.857 76.7452 140.348C75.4547 140.839 74.8065 142.283 75.2974 143.573L79.9707 141.796ZM9.87099 102.471C11.7252 102.756 13.5297 103.065 15.2856 103.397L16.2152 98.4842C14.4012 98.141 12.5396 97.822 10.6293 97.5289L9.87099 102.471ZM25.9458 105.842C29.6558 106.855 33.1047 107.979 36.3098 109.193L38.0804 104.517C34.7205 103.244 31.1198 102.072 27.2621 101.019L25.9458 105.842ZM46.2128 113.59C49.6341 115.36 52.6925 117.237 55.4242 119.175L58.3175 115.097C55.3912 113.021 52.1334 111.024 48.5107 109.149L46.2128 113.59ZM63.6274 126.056C66.3755 128.794 68.6082 131.556 70.4123 134.235L74.5597 131.443C72.5768 128.498 70.1377 125.484 67.1564 122.513L63.6274 126.056ZM75.2974 143.573C75.9856 145.383 76.4761 147.058 76.811 148.548L81.6893 147.452C81.3018 145.728 80.7424 143.824 79.9707 141.796L75.2974 143.573Z" fill="#3A4DF1"/>
<path d="M81.0179 24.2322C80.0416 23.2559 78.4587 23.2559 77.4824 24.2322L61.5725 40.1421C60.5961 41.1184 60.5961 42.7014 61.5725 43.6777C62.5488 44.654 64.1317 44.654 65.108 43.6777L79.2501 29.5355L93.3923 43.6777C94.3686 44.654 95.9515 44.654 96.9278 43.6777C97.9041 42.7014 97.9041 41.1184 96.9278 40.1421L81.0179 24.2322ZM76.7501 148C76.7501 149.381 77.8694 150.5 79.2501 150.5C80.6308 150.5 81.7501 149.381 81.7501 148H76.7501ZM76.7501 87V148H81.7501V87H76.7501ZM76.7501 26V47H81.7501V26H76.7501ZM76.7501 47V87H81.7501V47H76.7501Z" fill="#111827"/>
<path d="M77.7025 146.337C77.7508 147.717 78.9087 148.796 80.2885 148.748C81.6684 148.699 82.7478 147.541 82.6994 146.162L77.7025 146.337ZM146.58 77.7036C147.521 76.6932 147.464 75.1113 146.454 74.1704L129.987 58.8376C128.976 57.8967 127.395 57.9531 126.454 58.9636C125.513 59.9741 125.569 61.556 126.58 62.4969L141.217 76.126L127.588 90.7632C126.647 91.7736 126.703 93.3556 127.714 94.2964C128.724 95.2373 130.306 95.1809 131.247 94.1704L146.58 77.7036ZM82.4563 141.481C82.3787 140.102 81.1983 139.048 79.8198 139.125C78.4413 139.203 77.3866 140.383 77.4642 141.762L82.4563 141.481ZM77.1665 132.299C77.1599 133.68 78.2739 134.804 79.6546 134.811C81.0353 134.818 82.1599 133.704 82.1664 132.323L77.1665 132.299ZM82.6801 123.301C82.8398 121.93 81.8575 120.689 80.4861 120.529C79.1146 120.369 77.8734 121.352 77.7136 122.723L82.6801 123.301ZM79.5219 113.219C79.1585 114.551 79.9437 115.926 81.2757 116.289C82.6077 116.653 83.9822 115.868 84.3456 114.536L79.5219 113.219ZM87.4322 106.267C88.0379 105.026 87.5231 103.529 86.2823 102.923C85.0416 102.318 83.5447 102.833 82.939 104.073L87.4322 106.267ZM88.1524 95.7473C87.2984 96.8322 87.4855 98.404 88.5704 99.258C89.6553 100.112 91.2271 99.925 92.0811 98.8401L88.1524 95.7473ZM98.2044 92.5783C99.2675 91.6973 99.4152 90.1213 98.5342 89.0582C97.6533 87.995 96.0773 87.8473 95.0141 88.7283L98.2044 92.5783ZM103.091 83.2499C101.883 83.9183 101.446 85.4395 102.114 86.6477C102.782 87.8558 104.303 88.2935 105.512 87.6252L103.091 83.2499ZM113.624 83.9395C114.919 83.4611 115.581 82.0234 115.103 80.7282C114.624 79.433 113.186 78.7708 111.891 79.2492L113.624 83.9395ZM121.095 76.4845C119.752 76.8055 118.923 78.1543 119.244 79.4972C119.565 80.8401 120.914 81.6685 122.257 81.3476L121.095 76.4845ZM131.165 79.6709C132.532 79.4764 133.483 78.2107 133.288 76.8437C133.094 75.4768 131.828 74.5263 130.461 74.7208L131.165 79.6709ZM139.886 73.7464C138.509 73.8394 137.467 75.0315 137.56 76.4091C137.653 77.7867 138.845 78.8281 140.223 78.7351L139.886 73.7464ZM82.6994 146.162C82.6516 144.799 82.5531 143.2 82.4563 141.481L77.4642 141.762C77.5636 143.528 77.6571 145.044 77.7025 146.337L82.6994 146.162ZM82.1664 132.323C82.1799 129.462 82.3165 126.423 82.6801 123.301L77.7136 122.723C77.3239 126.069 77.1806 129.298 77.1665 132.299L82.1664 132.323ZM84.3456 114.536C85.1069 111.745 86.1134 108.968 87.4322 106.267L82.939 104.073C81.4675 107.088 80.356 110.163 79.5219 113.219L84.3456 114.536ZM92.0811 98.8401C93.809 96.6452 95.833 94.5432 98.2044 92.5783L95.0141 88.7283C92.3675 90.9214 90.0965 93.2778 88.1524 95.7473L92.0811 98.8401ZM105.512 87.6252C107.947 86.2782 110.641 85.0409 113.624 83.9395L111.891 79.2492C108.685 80.4332 105.76 81.7741 103.091 83.2499L105.512 87.6252ZM122.257 81.3476C125.028 80.6854 127.993 80.1222 131.165 79.6709L130.461 74.7208C127.145 75.1926 124.026 75.784 121.095 76.4845L122.257 81.3476ZM140.223 78.7351C141.723 78.6339 143.261 78.5547 144.839 78.4984L144.661 73.5016C143.032 73.5597 141.44 73.6416 139.886 73.7464L140.223 78.7351Z" fill="#3A4DF1"/>
</svg>
