<svg width="143" height="139" viewBox="0 0 143 139" fill="none" xmlns="http://www.w3.org/2000/svg">
<path d="M56 70C56 78.4348 63.2582 85.5 72.5 85.5C81.7418 85.5 89 78.4348 89 70C89 61.5652 81.7418 54.5 72.5 54.5C63.2582 54.5 56 61.5652 56 70Z" fill="#3A4DF1" stroke="#3A4DF1" stroke-width="5"/>
<path d="M55 69.5C55 78.2142 62.4855 85.5 72 85.5C81.5145 85.5 89 78.2142 89 69.5C89 60.7858 81.5145 53.5 72 53.5C62.4855 53.5 55 60.7858 55 69.5Z" stroke="#111827" stroke-width="5"/>
<path d="M125.5 37C124 59 114.9 117.226 72.5 122" stroke="#3A4DF1" stroke-width="10" stroke-linecap="round"/>
<path d="M72.0547 3C87.447 23.3337 118.276 33.2992 132.144 35.8273C132.362 35.8671 132.509 36.0497 132.5 36.2725C131.291 65.5783 118.005 124.115 72.0547 129M70.9453 3C55.553 23.3337 24.724 33.2992 10.8559 35.8273C10.6376 35.8671 10.4912 36.0497 10.5004 36.2725C11.7091 65.5783 24.9949 124.115 70.9453 129" stroke="#111827" stroke-width="5" stroke-linecap="round"/>
<path d="M71.9183 20C83.5256 35.4923 106.774 43.0851 117.232 45.0113C117.396 45.0416 117.507 45.1807 117.5 45.3505C116.588 67.6787 106.569 112.278 71.9183 116M71.0817 20C59.4744 35.4923 36.2263 43.0851 25.7684 45.0113C25.6038 45.0416 25.4934 45.1807 25.5003 45.3505" stroke="#111827" stroke-width="5" stroke-linecap="round"/>
<path d="M25.5 45C26.5562 53.1244 26.0281 60.3657 30.7809 75.2015M33.4213 82.0896C34.1255 83.8557 35.6393 88.3418 38.1742 92.1567M42.3989 98.5149C47.6798 106.993 59.8258 115.47 72.5 116" stroke="#111827" stroke-width="5" stroke-linecap="round"/>
</svg>
