<svg width="183" height="155" viewBox="0 0 183 155" fill="none" xmlns="http://www.w3.org/2000/svg">
<path d="M157.778 38.7705V82.2951V125.82M41.5838 30.6558L55.2754 43.9345M55.2754 43.9345L68.9671 57.2131M55.2754 43.9345L68.9671 30.6558M55.2754 43.9345L41.5838 57.2131M27.7947 141.443H91.8365H158.371M158.371 141.443L164.365 139.836M158.371 141.443C161.968 141.443 167.862 135.541 170.359 132.59" stroke="#3A4DF1" stroke-width="8" stroke-linecap="round" stroke-linejoin="round"/>
<path d="M25.3018 125.82V82.2951M34.9723 125.82V115.123V104.426M34.9723 95.5738V93.3607M162.218 125.82V36.5574C162.218 36.15 161.887 35.8197 161.478 35.8197H97.8306M151.808 123.5V45.9344C151.808 45.527 151.477 45.1967 152.071 45.1967H103.539M39.3635 29.918L53.0552 43.1967M53.0552 43.1967L66.7469 56.4754M53.0552 43.1967L66.7469 29.918M53.0552 43.1967L39.3635 56.4754M143.55 120.684V114.254C143.55 110.843 142.276 107.572 140.008 105.16C137.739 102.748 134.663 101.393 131.455 101.393H107.264C104.056 101.393 100.98 102.748 98.7112 105.16C96.4428 107.572 95.1685 110.843 95.1685 114.254V120.684M16.4207 127.295H76.22C76.397 127.295 76.568 127.358 76.7023 127.473L83.5839 133.366C83.7181 133.481 83.8892 133.544 84.0661 133.544H105.411C105.587 133.544 105.759 133.481 105.893 133.366L112.774 127.473C112.909 127.358 113.08 127.295 113.257 127.295H171.776C172.209 127.295 172.55 127.661 172.494 128.089C171.825 133.184 168.452 142.567 159.293 144.976C159.232 144.992 159.169 145 159.107 145H31.5883C31.5245 145 31.4634 144.993 31.4018 144.976C26.225 143.582 16.161 138.317 15.6972 128.035C15.6789 127.628 16.012 127.295 16.4207 127.295ZM79.6287 10C85.6926 10.3983 97.3354 15.4964 95.3949 32.7026V62.5745C95.3949 68.5488 91.7565 76.913 79.6287 76.913H71.5435C69.7124 76.913 68.5416 78.8355 69.4033 80.4273L77.2031 94.8361L44.6371 75.8227C44.5199 75.7543 44.3861 75.7193 44.2504 75.7216L29.7293 75.9705C15.137 75.9705 10.7593 67.7242 10.7593 61.834V32.3829C8.42449 15.419 22.4332 10.3927 29.7293 10H79.6287ZM131.455 80.8974C131.455 88.2218 126.04 94.1595 119.359 94.1595C112.679 94.1595 107.264 88.2218 107.264 80.8974C107.264 73.5729 112.679 67.6352 119.359 67.6352C126.04 67.6352 131.455 73.5729 131.455 80.8974Z" stroke="#111827" stroke-width="5" stroke-linecap="round" stroke-linejoin="round"/>
</svg>
