<svg width="151" height="157" viewBox="0 0 151 157" fill="none" xmlns="http://www.w3.org/2000/svg">
<ellipse cx="97.0237" cy="108.407" rx="10.0273" ry="8.7907" fill="#3A4DF1"/>
<path d="M130.852 21.9651V145.035" stroke="#3A4DF1" stroke-width="5" stroke-linecap="round" stroke-linejoin="round"/>
<path d="M35.7457 42.4929C35.7457 38.6494 38.8615 35.5336 42.705 35.5336H108.262C112.106 35.5336 115.221 38.6494 115.221 42.4929C115.221 46.3364 112.106 49.4522 108.262 49.4522H42.705C38.8615 49.4522 35.7457 46.3364 35.7457 42.4929Z" fill="#3A4DF1"/>
<path d="M102.323 107.674C102.323 110.513 99.6947 113.232 95.9096 113.232C92.1245 113.232 89.4964 110.513 89.4964 107.674C89.4964 104.836 92.1245 102.116 95.9096 102.116C99.6947 102.116 102.323 104.836 102.323 107.674Z" fill="#3A4DF1" stroke="#4E4E4E" stroke-width="5"/>
<ellipse cx="96.281" cy="107.674" rx="5.57073" ry="4.39535" fill="#3A4DF1"/>
<path d="M34.6504 57.8333H50.9661M60.0303 57.8333H78.1588H97.4657M105.351 57.8333H112.603M34.6504 68.7222H72.7202M82.689 68.7222H104.443M34.6504 79.6111H60.0303M34.6504 88.9444H45.5275M34.6504 132.5H55.1956M63.656 132.5H69.0945M74.5331 79.6111H85.4102M84.4406 120.794L78.6827 140.791C78.4604 141.564 79.1939 142.27 79.9571 142.018L89.3621 138.914C89.7183 138.796 89.9787 138.489 90.0367 138.119L92.4004 123.01M92.4004 123.01L95.0185 125.211C95.7234 125.804 96.8511 125.804 97.556 125.211L100.174 123.01C100.627 122.629 101.28 122.479 101.894 122.615M92.4004 123.01C91.9472 122.629 91.2949 122.479 90.6804 122.615L87.1304 123.397C86.1747 123.608 85.1981 123.124 84.9329 122.309L83.9482 119.279C83.7777 118.755 83.3002 118.345 82.689 118.199L79.1585 117.354C78.208 117.126 77.6441 116.288 77.8897 115.468L78.8022 112.422C78.9602 111.895 78.7854 111.335 78.3413 110.946L75.7761 108.7C75.0855 108.095 75.0855 107.127 75.7761 106.522L78.3413 104.276C78.7854 103.887 78.9602 103.327 78.8022 102.8L77.8897 99.7539C77.6441 98.9338 78.208 98.0958 79.1585 97.8683L82.689 97.0233C83.3002 96.877 83.7777 96.4673 83.9482 95.9429L84.9329 92.9134C85.1981 92.0978 86.1747 91.6139 87.1304 91.8247L90.6804 92.6077C91.2949 92.7432 91.9472 92.5932 92.4004 92.2122L95.0185 90.0111C95.7234 89.4185 96.8511 89.4185 97.556 90.0111L100.174 92.2122C100.627 92.5932 101.28 92.7432 101.894 92.6077L105.444 91.8247C106.4 91.6139 107.376 92.0978 107.642 92.9134L108.626 95.9429C108.797 96.4673 109.274 96.877 109.885 97.0233L113.416 97.8683C114.367 98.0958 114.93 98.9338 114.685 99.7539L113.772 102.8C113.614 103.327 113.789 103.887 114.233 104.276L116.798 106.522C117.489 107.127 117.489 108.095 116.798 108.7L114.233 110.946C113.789 111.335 113.614 111.895 113.772 112.422L114.685 115.468C114.93 116.288 114.367 117.126 113.416 117.354L109.885 118.199M109.885 118.199L115.767 140.835C115.966 141.601 115.238 142.284 114.486 142.036L105.024 138.913C104.668 138.796 104.408 138.49 104.35 138.12L101.894 122.615M109.885 118.199C109.274 118.345 108.797 118.755 108.626 119.279L107.642 122.309C107.376 123.124 106.4 123.608 105.444 123.397L101.894 122.615M42.8082 46.9444C38.3028 46.9444 34.6504 43.8104 34.6504 39.9444C34.6504 36.0785 38.3028 32.9444 42.8082 32.9444H74.5331H106.258C110.763 32.9444 114.416 36.0785 114.416 39.9444C114.416 43.8104 110.763 46.9444 106.258 46.9444H74.5331H42.8082ZM20.1476 22.0556V144.944C20.1476 145.804 20.9593 146.5 21.9605 146.5H125.293C126.294 146.5 127.106 145.804 127.106 144.944V22.0556C127.106 21.1964 126.294 20.5 125.293 20.5H21.9605C20.9593 20.5 20.1476 21.1964 20.1476 22.0556Z" stroke="#111827" stroke-width="5" stroke-linecap="round" stroke-linejoin="round"/>
</svg>
