<svg width="22" height="20" viewBox="0 0 22 20" fill="none" xmlns="http://www.w3.org/2000/svg">
<path d="M1.00732 5.51678H4.50863" stroke="#111827" stroke-width="1.74924" stroke-linecap="round"/>
<path d="M1 14.6814H14.1322" stroke="#111827" stroke-width="1.74924" stroke-linecap="round"/>
<path d="M12.3599 5.64355H20.9559" stroke="#111827" stroke-width="1.74924" stroke-linecap="round"/>
<path d="M11.6748 5.61401C11.6748 7.79653 10.1028 9.40404 8.35307 9.40404C6.60328 9.40404 5.03136 7.79653 5.03136 5.61401C5.03136 3.43148 6.60328 1.82397 8.35307 1.82397C10.1028 1.82397 11.6748 3.43148 11.6748 5.61401Z" stroke="#111827" stroke-width="1.74924"/>
<path d="M21.1162 14.6518C21.1162 16.8343 19.5443 18.4418 17.7945 18.4418C16.0447 18.4418 14.4728 16.8343 14.4728 14.6518C14.4728 12.4693 16.0447 10.8618 17.7945 10.8618C19.5443 10.8618 21.1162 12.4693 21.1162 14.6518Z" stroke="#111827" stroke-width="1.74924"/>
</svg>
