<svg width="20" height="18" viewBox="0 0 20 18" fill="none" xmlns="http://www.w3.org/2000/svg">
<path d="M12 9.77162H11V8.74305C11 8.47025 10.8946 8.20863 10.7071 8.01574C10.5196 7.82284 10.2652 7.71448 10 7.71448C9.73478 7.71448 9.48043 7.82284 9.29289 8.01574C9.10536 8.20863 9 8.47025 9 8.74305V9.77162H8C7.73478 9.77162 7.48043 9.87999 7.29289 10.0729C7.10536 10.2658 7 10.5274 7 10.8002C7 11.073 7.10536 11.3346 7.29289 11.5275C7.48043 11.7204 7.73478 11.8288 8 11.8288H9V12.8573C9 13.1301 9.10536 13.3918 9.29289 13.5846C9.48043 13.7775 9.73478 13.8859 10 13.8859C10.2652 13.8859 10.5196 13.7775 10.7071 13.5846C10.8946 13.3918 11 13.1301 11 12.8573V11.8288H12C12.2652 11.8288 12.5196 11.7204 12.7071 11.5275C12.8946 11.3346 13 11.073 13 10.8002C13 10.5274 12.8946 10.2658 12.7071 10.0729C12.5196 9.87999 12.2652 9.77162 12 9.77162Z" fill="white"/>
<path d="M17.5 3.65162H10.5L7.87 0.380763C7.77695 0.262772 7.65964 0.16745 7.5265 0.101648C7.39336 0.0358451 7.24771 0.00119637 7.1 0.00019168H2.5C1.84661 -0.00805892 1.21666 0.250335 0.748098 0.718793C0.279533 1.18725 0.0105328 1.8276 0 2.49962V14.9865C0.0105328 15.6585 0.279533 16.2988 0.748098 16.7673C1.21666 17.2358 1.84661 17.4942 2.5 17.4859H17.5C18.1534 17.4942 18.7833 17.2358 19.2519 16.7673C19.7205 16.2988 19.9895 15.6585 20 14.9865V6.15105C19.9895 5.47903 19.7205 4.83868 19.2519 4.37022C18.7833 3.90176 18.1534 3.64337 17.5 3.65162V3.65162ZM18 14.9659C17.9962 15.029 17.9802 15.0907 17.9529 15.1474C17.9255 15.204 17.8874 15.2544 17.8408 15.2957C17.7942 15.3369 17.74 15.3681 17.6815 15.3874C17.6229 15.4067 17.5612 15.4138 17.5 15.4082H2.5C2.43876 15.4138 2.37706 15.4067 2.31852 15.3874C2.25998 15.3681 2.20581 15.3369 2.1592 15.2957C2.11259 15.2544 2.07448 15.204 2.04714 15.1474C2.0198 15.0907 2.00377 15.029 2 14.9659V2.49962C2.00377 2.4365 2.0198 2.37481 2.04714 2.31817C2.07448 2.26153 2.11259 2.21111 2.1592 2.16988C2.20581 2.12865 2.25998 2.09744 2.31852 2.07811C2.37706 2.05878 2.43876 2.05172 2.5 2.05733H6.63L9.23 5.32819C9.32305 5.44618 9.44036 5.54151 9.5735 5.60731C9.70664 5.67311 9.85229 5.70776 10 5.70876H17.5C17.5612 5.70315 17.6229 5.71021 17.6815 5.72954C17.74 5.74887 17.7942 5.78007 17.8408 5.82131C17.8874 5.86254 17.9255 5.91296 17.9529 5.9696C17.9802 6.02623 17.9962 6.08793 18 6.15105V14.9659Z" fill="white"/>
</svg>
