<svg width="22" height="22" viewBox="0 0 22 22" fill="none" xmlns="http://www.w3.org/2000/svg">
<path d="M17.5998 6.41661H17.2423C17.3521 6.12321 17.411 5.81319 17.4164 5.49994C17.3972 4.75432 17.0837 4.04659 16.5444 3.53134C16.0051 3.01608 15.2838 2.73517 14.5381 2.74994C13.8053 2.76577 13.0902 2.97834 12.4677 3.36538C11.8452 3.75243 11.3382 4.29972 10.9998 4.94994C10.6614 4.29972 10.1544 3.75243 9.5319 3.36538C8.9094 2.97834 8.19429 2.76577 7.46145 2.74994C6.71572 2.73517 5.99444 3.01608 5.45514 3.53134C4.91584 4.04659 4.60234 4.75432 4.58311 5.49994C4.58853 5.81319 4.64743 6.12321 4.75728 6.41661H4.39978C4.15857 6.43951 3.92428 6.51001 3.71048 6.62401C3.49668 6.73801 3.30759 6.89327 3.15416 7.0808C3.00072 7.26833 2.88599 7.48441 2.81658 7.71656C2.74717 7.9487 2.72446 8.1923 2.74978 8.43328V11.7333C2.70696 12.1772 2.82108 12.622 3.0723 12.9905C3.32351 13.3589 3.69593 13.6277 4.12478 13.7499V17.7558C4.15308 18.1716 4.34207 18.56 4.65175 18.8389C4.96143 19.1178 5.36748 19.2652 5.78395 19.2499H16.2156C16.6381 19.2649 17.0494 19.1124 17.36 18.8258C17.6707 18.5391 17.8557 18.1414 17.8748 17.7191V13.7499C18.3036 13.6277 18.676 13.3589 18.9273 12.9905C19.1785 12.622 19.2926 12.1772 19.2498 11.7333V8.43328C19.2751 8.1923 19.2524 7.9487 19.183 7.71656C19.1136 7.48441 18.9988 7.26833 18.8454 7.0808C18.692 6.89327 18.5029 6.73801 18.2891 6.62401C18.0753 6.51001 17.841 6.43951 17.5998 6.41661ZM17.4164 8.43328V11.7333C17.4274 11.7939 17.4274 11.856 17.4164 11.9166H11.9164V8.24994H17.4164C17.4274 8.31056 17.4274 8.37266 17.4164 8.43328ZM14.5381 4.58328C14.7978 4.56814 15.053 4.65582 15.2486 4.82736C15.4441 4.99889 15.5643 5.2405 15.5831 5.49994C15.5643 5.75939 15.4441 6.00099 15.2486 6.17253C15.053 6.34407 14.7978 6.43174 14.5381 6.41661H12.2831C12.4435 5.9269 12.7414 5.49367 13.1412 5.1686C13.5411 4.84353 14.026 4.64034 14.5381 4.58328ZM6.41645 5.49994C6.43527 5.2405 6.55546 4.99889 6.75101 4.82736C6.94656 4.65582 7.20176 4.56814 7.46145 4.58328C7.97195 4.642 8.45489 4.84594 8.85297 5.1709C9.25104 5.49586 9.54754 5.9282 9.70728 6.41661H7.46145C7.20176 6.43174 6.94656 6.34407 6.75101 6.17253C6.55546 6.00099 6.43527 5.75939 6.41645 5.49994ZM4.58311 8.43328C4.57211 8.37266 4.57211 8.31056 4.58311 8.24994H10.0831V11.9166H4.58311C4.57211 11.856 4.57211 11.7939 4.58311 11.7333V8.43328ZM5.95811 13.7499H10.0831V17.4166H5.95811V13.7499ZM11.9164 17.4166V13.7499H16.0414V17.4166H11.9164Z" fill="white"/>
</svg>
