<svg width="20" height="20" viewBox="0 0 20 20" fill="none" xmlns="http://www.w3.org/2000/svg">
<path d="M9.7325 18.465C14.5553 18.465 18.465 14.5553 18.465 9.7325C18.465 4.90967 14.5553 1 9.7325 1C4.90967 1 1 4.90967 1 9.7325C1 14.5553 4.90967 18.465 9.7325 18.465Z" stroke="white" stroke-width="1.7465" stroke-linecap="round" stroke-linejoin="round"/>
<path d="M7.19141 7.11271C7.39671 6.52909 7.80194 6.03696 8.33532 5.72349C8.86871 5.41001 9.49582 5.29543 10.1056 5.40002C10.7154 5.50461 11.2685 5.82163 11.6669 6.29494C12.0653 6.76824 12.2834 7.36729 12.2825 7.98596C12.2825 9.73246 9.6627 10.6057 9.6627 10.6057" stroke="white" stroke-width="1.7465" stroke-linecap="round" stroke-linejoin="round"/>
<path d="M9.73242 14.0986H9.74115" stroke="white" stroke-width="1.7465" stroke-linecap="round" stroke-linejoin="round"/>
</svg>
