<svg width="21" height="21" viewBox="0 0 21 21" fill="none" xmlns="http://www.w3.org/2000/svg">
<path d="M4.91948 2.3707C6.53211 1.29318 8.42805 0.718048 10.3676 0.718048C11.6553 0.718048 12.9305 0.971695 14.1202 1.46451C15.31 1.95732 16.391 2.67964 17.3016 3.59024C18.2122 4.50083 18.9345 5.58187 19.4274 6.77162C19.9202 7.96137 20.1738 9.23654 20.1738 10.5243C20.1738 12.4638 19.5987 14.3598 18.5212 15.9724C17.4436 17.585 15.9121 18.8419 14.1202 19.5841C12.3284 20.3263 10.3567 20.5205 8.45444 20.1422C6.55221 19.7638 4.8049 18.8298 3.43347 17.4584C2.06204 16.087 1.12809 14.3397 0.749709 12.4374C0.371332 10.5352 0.565528 8.56348 1.30774 6.77162C2.04995 4.97976 3.30685 3.44823 4.91948 2.3707Z" fill="#D0EBFF" stroke="#D0EBFF"/>
<path d="M13.1502 6.80373L9.25446 11.9569L7.57454 9.78224C7.40643 9.56631 7.15944 9.42599 6.88788 9.39217C6.61632 9.35834 6.34245 9.43378 6.12651 9.60189C5.91057 9.76999 5.77026 10.017 5.73643 10.2885C5.70261 10.5601 5.77804 10.834 5.94615 11.0499L8.45057 14.2552C8.54763 14.378 8.67139 14.4771 8.81247 14.545C8.95354 14.6128 9.10822 14.6476 9.26477 14.6468C9.42216 14.6464 9.57738 14.61 9.71851 14.5403C9.85965 14.4707 9.98295 14.3696 10.079 14.2449L14.7889 8.0611C14.9557 7.84243 15.0287 7.56648 14.992 7.29395C14.9553 7.02143 14.8118 6.77465 14.5931 6.60791C14.3744 6.44118 14.0985 6.36814 13.826 6.40486C13.5534 6.44158 13.3067 6.58506 13.1399 6.80373H13.1502Z" fill="#3A4DF1"/>
</svg>
