<svg width="24" height="24" viewBox="0 0 24 24" fill="none" xmlns="http://www.w3.org/2000/svg">
<path d="M20.0501 11H3.95014C3.42547 11 3.00014 11.4253 3.00014 11.95V12.05C3.00014 12.5747 3.42547 13 3.95014 13H20.0501C20.5748 13 21.0001 12.5747 21.0001 12.05V11.95C21.0001 11.4253 20.5748 11 20.0501 11Z" fill="#111827"/>
<path d="M20.0501 16H3.95014C3.42547 16 3.00014 16.4253 3.00014 16.95V17.05C3.00014 17.5747 3.42547 18 3.95014 18H20.0501C20.5748 18 21.0001 17.5747 21.0001 17.05V16.95C21.0001 16.4253 20.5748 16 20.0501 16Z" fill="#111827"/>
<path d="M20.0501 6H3.95007C3.4254 6 3.00007 6.42533 3.00007 6.95V7.05C3.00007 7.57467 3.4254 8 3.95007 8H20.0501C20.5747 8 21.0001 7.57467 21.0001 7.05V6.95C21.0001 6.42533 20.5747 6 20.0501 6Z" fill="#111827"/>
</svg>
