<svg width="17" height="17" viewBox="0 0 17 17" fill="none" xmlns="http://www.w3.org/2000/svg">
<g clip-path="url(#clip0_337_3412)">
<path d="M4.60394 15.5833H12.3956M6.72894 9.91663H10.2706M11.8289 13.4441H5.17061C4.87311 13.4441 4.54019 13.2104 4.44102 12.927L1.50852 4.72455C1.09061 3.54871 1.57936 3.18746 2.58519 3.90996L5.34769 5.88621C5.80811 6.20496 6.33227 6.04205 6.53061 5.52496L7.77727 2.20288C8.17394 1.14038 8.83269 1.14038 9.22936 2.20288L10.476 5.52496C10.6744 6.04205 11.1985 6.20496 11.6519 5.88621L14.2444 4.03746C15.3494 3.24413 15.8806 3.64788 15.4273 4.92996L12.5656 12.9412C12.4594 13.2104 12.1264 13.4441 11.8289 13.4441V13.4441Z" stroke="white" stroke-width="1.5" stroke-linecap="round" stroke-linejoin="round"/>
</g>
<defs>
<clipPath id="clip0_337_3412">
<rect width="17" height="17" fill="white"/>
</clipPath>
</defs>
</svg>
