<svg width="25" height="22" viewBox="0 0 25 22" fill="none" xmlns="http://www.w3.org/2000/svg">
<path d="M2.05557 10.3137L7.85549 10.2821C9.38546 10.2737 10.4299 9.25303 10.4231 8.01055L10.4078 5.19309C10.401 3.95061 9.34547 2.94135 7.81549 2.9497L4.59554 2.96726C3.17556 2.975 2.02112 3.99632 2.02789 5.2388L2.05557 10.3137" stroke="#61BBFF" stroke-width="1.5" stroke-linecap="round" stroke-linejoin="round"/>
<path d="M2.05556 10.3136C2.08443 15.6073 3.21919 16.4761 6.62878 18.225M13.6854 10.2502L19.4853 10.2186C21.0153 10.2102 22.0597 9.1895 22.053 7.94702L22.0376 5.12956C22.0308 3.88708 20.9753 2.87782 19.4453 2.88617L16.2254 2.90373C14.8054 2.91148 13.6509 3.93279 13.6577 5.17527L13.6854 10.2502Z" stroke="#61BBFF" stroke-width="1.5" stroke-linecap="round" stroke-linejoin="round"/>
<path d="M13.6854 10.2501C13.7143 15.5438 14.849 16.4126 18.2586 18.1616" stroke="#61BBFF" stroke-width="1.5" stroke-linecap="round" stroke-linejoin="round"/>
</svg>
