<svg width="23" height="22" viewBox="0 0 23 22" fill="none" xmlns="http://www.w3.org/2000/svg">
<path d="M19.8469 16.477L16.5885 13.4194C17.6398 12.1589 18.2102 10.6023 18.2081 8.99982C18.2081 7.57271 17.7585 6.17763 16.916 4.99103C16.0736 3.80442 14.8762 2.87958 13.4753 2.33344C12.0744 1.78731 10.5329 1.64441 9.04575 1.92283C7.55856 2.20125 6.19249 2.88847 5.12029 3.8976C4.04808 4.90672 3.3179 6.19243 3.02208 7.59212C2.72626 8.99182 2.87809 10.4426 3.45836 11.7611C4.03863 13.0796 5.02129 14.2065 6.28207 14.9994C7.54284 15.7923 9.02512 16.2155 10.5414 16.2155C12.2441 16.2175 13.898 15.6806 15.2373 14.6912L18.486 17.7578C18.5751 17.8423 18.6811 17.9094 18.7979 17.9552C18.9147 18.001 19.0399 18.0246 19.1664 18.0246C19.293 18.0246 19.4182 18.001 19.535 17.9552C19.6518 17.9094 19.7578 17.8423 19.8469 17.7578C19.9367 17.674 20.008 17.5742 20.0566 17.4643C20.1053 17.3544 20.1303 17.2365 20.1303 17.1174C20.1303 16.9984 20.1053 16.8805 20.0566 16.7706C20.008 16.6606 19.9367 16.5609 19.8469 16.477ZM4.79144 8.99982C4.79144 7.92949 5.12867 6.88318 5.76049 5.99323C6.39231 5.10327 7.29033 4.40964 8.34101 4.00004C9.39168 3.59044 10.5478 3.48327 11.6632 3.69208C12.7786 3.90089 13.8032 4.41631 14.6073 5.17315C15.4115 5.93 15.9591 6.89428 16.181 7.94405C16.4028 8.99382 16.289 10.0819 15.8537 11.0708C15.4185 12.0597 14.6816 12.9049 13.736 13.4995C12.7904 14.0942 11.6787 14.4116 10.5414 14.4116C9.01644 14.4116 7.55391 13.8414 6.47557 12.8265C5.39724 11.8116 4.79144 10.4351 4.79144 8.99982Z" fill="#111827"/>
</svg>
