<svg width="24" height="22" viewBox="0 0 24 22" fill="none" xmlns="http://www.w3.org/2000/svg">
<path d="M20.1708 16.7465L16.8593 13.639C17.9277 12.3579 18.5075 10.776 18.5053 9.14735C18.5053 7.69696 18.0483 6.27913 17.1922 5.07317C16.336 3.86721 15.1191 2.92728 13.6954 2.37224C12.2716 1.81719 10.705 1.67197 9.19351 1.95493C7.68206 2.23788 6.29371 2.93632 5.20402 3.9619C4.11433 4.98749 3.37224 6.29416 3.07159 7.71669C2.77095 9.13922 2.92525 10.6137 3.51499 11.9537C4.10472 13.2937 5.10341 14.439 6.38475 15.2448C7.66609 16.0506 9.17254 16.4807 10.7136 16.4807C12.444 16.4827 14.1249 15.9371 15.486 14.9315L18.7878 18.0482C18.8783 18.1341 18.986 18.2023 19.1047 18.2488C19.2234 18.2954 19.3507 18.3193 19.4793 18.3193C19.6079 18.3193 19.7352 18.2954 19.8538 18.2488C19.9725 18.2023 20.0802 18.1341 20.1708 18.0482C20.2621 17.963 20.3345 17.8616 20.384 17.7499C20.4334 17.6382 20.4589 17.5184 20.4589 17.3974C20.4589 17.2763 20.4334 17.1565 20.384 17.0448C20.3345 16.9331 20.2621 16.8317 20.1708 16.7465ZM4.86981 9.14735C4.86981 8.05955 5.21254 6.99619 5.85466 6.09172C6.49679 5.18725 7.40946 4.4823 8.47727 4.06601C9.54509 3.64973 10.7201 3.54081 11.8537 3.75303C12.9872 3.96525 14.0285 4.48908 14.8458 5.25826C15.663 6.02745 16.2196 7.00746 16.4451 8.07436C16.6706 9.14125 16.5549 10.2471 16.1126 11.2521C15.6702 12.2571 14.9212 13.1161 13.9602 13.7204C12.9992 14.3248 11.8694 14.6474 10.7136 14.6474C9.16373 14.6474 7.67734 14.0679 6.58141 13.0364C5.48549 12.005 4.86981 10.606 4.86981 9.14735Z" fill="white"/>
</svg>
