<svg width="23" height="21" viewBox="0 0 23 21" fill="none" xmlns="http://www.w3.org/2000/svg">
<path d="M10.2584 0.488139C10.7135 -0.162714 11.6933 -0.162713 12.1483 0.48814L15.4171 5.16379C15.5661 5.37685 15.7854 5.53306 16.0382 5.6061L21.5844 7.20884C22.3565 7.43194 22.6593 8.34545 22.1684 8.9708L18.6424 13.4632C18.4817 13.668 18.398 13.9207 18.4052 14.1789L18.5642 19.8451C18.5863 20.6339 17.7936 21.1984 17.0352 20.9341L11.5872 19.0349C11.3389 18.9484 11.0678 18.9484 10.8196 19.0349L5.37153 20.9341C4.61316 21.1984 3.82046 20.6339 3.84259 19.8451L4.00156 14.1789C4.00881 13.9207 3.92503 13.668 3.76435 13.4632L0.238308 8.9708C-0.252519 8.34545 0.050265 7.43194 0.822311 7.20884L6.3686 5.6061C6.62134 5.53306 6.84067 5.37685 6.98962 5.16379L10.2584 0.488139Z" fill="#61BBFF"/>
</svg>
