<svg width="45" height="32" viewBox="0 0 45 32" fill="none" xmlns="http://www.w3.org/2000/svg">
<rect x="0.5" y="0.5" width="44" height="31" rx="5.5" fill="white" stroke="#D9D9D9"/>
<path fill-rule="evenodd" clip-rule="evenodd" d="M13.6615 21.6776H10.9353L8.89107 13.5897C8.79404 13.2177 8.58802 12.8888 8.28497 12.7338C7.52867 12.3442 6.69529 12.0342 5.78613 11.8778V11.5664H10.1777C10.7838 11.5664 11.2384 12.0342 11.3142 12.5774L12.3748 18.4114L15.0996 11.5664H17.75L13.6615 21.6776ZM19.2652 21.6776H16.6906L18.8107 11.5664H21.3853L19.2652 21.6776ZM24.7162 14.3675C24.7919 13.823 25.2465 13.5116 25.7768 13.5116C26.6102 13.4334 27.5181 13.5898 28.2757 13.978L28.7303 11.801C27.9726 11.4896 27.1392 11.3333 26.383 11.3333C23.8841 11.3333 22.0658 12.7338 22.0658 14.6776C22.0658 16.1563 23.3538 16.9327 24.2629 17.4005C25.2465 17.8669 25.6253 18.1783 25.5496 18.6447C25.5496 19.3442 24.7919 19.6556 24.0356 19.6556C23.1265 19.6556 22.2173 19.4224 21.3853 19.0329L20.9307 21.2112C21.8398 21.5994 22.8234 21.7558 23.7326 21.7558C26.5345 21.8326 28.2757 20.4334 28.2757 18.3333C28.2757 15.6885 24.7162 15.5335 24.7162 14.3675ZM37.2861 21.6776L35.2419 11.5664H33.0461C32.5915 11.5664 32.1369 11.8778 31.9854 12.3442L28.1999 21.6776H30.8503L31.3793 20.2002H34.6358L34.9388 21.6776H37.2861ZM33.4249 14.2894L34.1812 18.1001H32.0612L33.4249 14.2894Z" fill="#172B85"/>
</svg>
