<svg width="150" height="24" viewBox="0 0 150 24" fill="none" xmlns="http://www.w3.org/2000/svg">
<g clip-path="url(#clip0_1633_2682)">
<path d="M94.7 14.2C94.7 18.1 92.9 18.0999 92 18.0999C91.1 18.0999 89.3 18.1 89.3 14.2V3.20001H84.7V14.9C84.7 19.4 87.7 22.5999 92 22.5999C96.3 22.5999 99.3 19.4 99.3 14.9V3.20001H94.7V14.2Z" fill="#343D45"/>
<path d="M139.8 2.59991C134.2 2.59991 129.6 7.10011 129.6 12.8001C129.6 18.4001 134.2 23.0001 139.8 23.0001C145.4 23.0001 150 18.4001 150 12.8001C150 7.20011 145.4 2.59991 139.8 2.59991ZM139.8 18.3001C136.7 18.3001 134.3 15.8 134.3 12.7C134.3 9.70001 136.7 7.19991 139.7 7.09991C142.7 7.09991 145.2 9.50006 145.3 12.5001V12.5999C145.3 15.7999 142.8 18.3001 139.8 18.3001Z" fill="#343D45"/>
<path d="M10.3 6.10352e-05L0 22.4H5.19995L7.19995 18.0999H13.3999L15.3999 22.4H20.6001L10.3 6.10352e-05ZM8.30005 14.3001L10.2 9.59991L12.1001 14.3001H8.30005Z" fill="#343D45"/>
<path d="M32.5 3.30011H25V22.2H29.7V16.8001H32.2C36.8 16.8001 39.7 14.2001 39.7 10.0001V9.89996C39.8 5.79996 37 3.30011 32.5 3.30011ZM35 10.2C35 11.8 33.9001 12.8001 32.1001 12.8001H29.7V7.59991H32.1001C34.0001 7.49991 35 8.50001 35 10.2Z" fill="#343D45"/>
<path d="M51.8999 3.30011H44.3999V22.2H49.1001V16.8001H51.6001C56.2001 16.8001 59.1001 14.2001 59.1001 10.0001V9.89996C59.2001 5.79996 56.3999 3.30011 51.8999 3.30011ZM54.3999 10.2C54.3999 11.8 53.3 12.8001 51.5 12.8001H49.1001V7.59991H51.5C53.4 7.49991 54.3999 8.50001 54.3999 10.2Z" fill="#343D45"/>
<path d="M73.1001 9.30011C69.4001 8.30011 68.6001 7.89991 68.6001 6.59991V6.50006C68.6001 5.50006 69.6 4.80011 71.2 4.80011C73.2 4.90011 75.1 5.59996 76.7 6.89996L76.8 7.00006L79.3999 3.20001L79.3 3.09991C77 1.29991 74.1 0.30011 71.2 0.30011C66.7 0.30011 63.5 2.99996 63.5 6.89996V7.00006C63.5 11.5001 66.6 12.7 70.8 13.7C74.4 14.6 75 15.2001 75 16.3001V16.4C75 17.6 73.9001 18.3001 72.1001 18.3001C69.8001 18.2001 67.5 17.3 65.8 15.7L65.7 15.5999L62.7 19.2L62.8 19.3001C65.3 21.6001 68.6 22.8001 72 22.8001C77 22.8001 80.1001 20.2001 80.1001 16.0001V15.9C80.1001 11.9 77.3001 10.3001 73.1001 9.30011Z" fill="#343D45"/>
<path d="M114.8 23.2L109.1 13.5999L107.4 22.5001H103.3L107.5 2.59991L114.9 15.0999L121.9 2.59991L126.1 22.5001H121.7L120.1 13.7L114.8 23.2Z" fill="#343D45"/>
</g>
<defs>
<clipPath id="clip0_1633_2682">
<rect width="150" height="23.2" fill="white"/>
</clipPath>
</defs>
</svg>
