<svg width="71" height="17" viewBox="0 0 71 17" fill="none" xmlns="http://www.w3.org/2000/svg">
<g clip-path="url(#clip0_1143_2667)">
<path d="M18.0505 9.02108C18.1782 9.57465 18.2424 10.1375 18.2422 10.7017V16.5878C18.2422 16.6266 18.2244 16.6638 18.1925 16.6914C18.1606 16.719 18.1172 16.7347 18.0718 16.7353H15.8185C15.7959 16.7355 15.7735 16.732 15.7525 16.7248C15.7316 16.7176 15.7125 16.7069 15.6964 16.6934C15.6803 16.6798 15.6676 16.6637 15.6589 16.6459C15.6502 16.6282 15.6457 16.6091 15.6457 16.5898V10.9582C15.6457 10.5941 15.6173 10.2303 15.5605 9.86946C15.5149 9.55981 15.3991 9.26068 15.2196 8.98876C15.0495 8.73962 14.8043 8.53388 14.5095 8.39288C14.1265 8.22797 13.7002 8.15006 13.2716 8.16664C12.2538 8.16664 11.52 8.43328 11.0893 8.95644C10.6585 9.47961 10.4194 10.2007 10.4194 11.0653V16.5878C10.4194 16.6266 10.4015 16.6638 10.3696 16.6914C10.3377 16.719 10.2944 16.7347 10.249 16.7353H7.99799C7.97522 16.7358 7.95255 16.7324 7.93132 16.7254C7.9101 16.7183 7.89075 16.7077 7.87442 16.6941C7.85809 16.6806 7.84511 16.6643 7.83625 16.6464C7.82739 16.6285 7.82283 16.6093 7.82284 16.5898V11.2976C7.82501 10.8636 7.79656 10.4298 7.73763 9.99874C7.69403 9.65591 7.58027 9.32227 7.40152 9.013C7.25017 8.75128 7.01345 8.53243 6.71983 8.38278C6.34036 8.21766 5.91679 8.14035 5.49137 8.15856C5.11562 8.15855 4.74371 8.22312 4.39783 8.34844C4.04355 8.47817 3.72745 8.67341 3.47235 8.92008C3.18327 9.2068 2.9658 9.54085 2.83326 9.90178C2.66395 10.3658 2.58401 10.8501 2.59657 11.3359V16.5878C2.59663 16.6255 2.57973 16.6619 2.54935 16.6893C2.51897 16.7167 2.47741 16.7332 2.43325 16.7353H0.175156C0.152381 16.7358 0.12971 16.7324 0.108483 16.7254C0.0872574 16.7183 0.0679073 16.7077 0.0515773 16.6941C0.0352473 16.6806 0.0222691 16.6643 0.0134101 16.6464C0.00455113 16.6285 -8.79433e-06 16.6093 1.27332e-08 16.5898V6.49009C8.05224e-08 6.45045 0.018454 6.41243 0.0513021 6.38439C0.0841501 6.35636 0.128702 6.34061 0.175156 6.34061H2.27229C2.31875 6.34061 2.3633 6.35636 2.39615 6.38439C2.42899 6.41243 2.44745 6.45045 2.44745 6.49009V7.5748C2.48769 7.52834 2.53029 7.47986 2.57763 7.4334C2.81881 7.18975 3.09748 6.97504 3.40607 6.7951C3.77293 6.58221 4.17079 6.41108 4.58956 6.28607C5.07949 6.14455 5.59436 6.07622 6.11152 6.08408C6.92439 6.05657 7.73015 6.22305 8.43825 6.56483C9.01141 6.87397 9.48689 7.29846 9.82293 7.80103C10.1938 7.276 10.7269 6.84829 11.3638 6.56483C12.0418 6.2517 12.799 6.08459 13.5698 6.07802C14.3726 6.05498 15.1704 6.19337 15.8989 6.48201C16.4763 6.72647 16.9715 7.09206 17.3381 7.5445C17.6883 7.99134 17.9305 8.49334 18.0505 9.02108ZM30.3588 15.7293C30.373 16.0222 30.399 16.307 30.4321 16.5716C30.4348 16.591 30.4329 16.6107 30.4265 16.6294C30.4202 16.6482 30.4096 16.6657 30.3953 16.6809C30.381 16.6961 30.3632 16.7087 30.3432 16.7181C30.3231 16.7274 30.301 16.7332 30.2783 16.7353H28.2593C28.2163 16.735 28.175 16.7212 28.1431 16.6967C28.1113 16.6721 28.0911 16.6384 28.0865 16.6019C28.051 16.2202 28.0273 15.8344 28.0155 15.4526C27.6031 15.9304 27.0603 16.3152 26.4343 16.5737C25.6673 16.8612 24.8364 17.0039 23.9987 16.9918C23.448 16.9926 22.9002 16.9245 22.3726 16.7898C21.8742 16.6652 21.4089 16.4594 21.0021 16.1838C20.6063 15.9112 20.2875 15.566 20.0695 15.1738C19.8325 14.744 19.715 14.2732 19.7263 13.7983C19.7033 13.1904 19.891 12.5904 20.266 12.0732C20.6392 11.6023 21.1413 11.2162 21.7288 10.9481C22.3958 10.6491 23.1152 10.4444 23.8591 10.3421C24.7063 10.2164 25.5649 10.1549 26.4249 10.1583H27.9019V9.89168C27.8986 9.64685 27.8433 9.40455 27.7385 9.17662C27.6272 8.93656 27.4615 8.7176 27.2509 8.53225C27.0186 8.33404 26.7405 8.17926 26.4343 8.07777C26.0563 7.95643 25.6546 7.89814 25.2508 7.90607C24.8827 7.90182 24.5154 7.93642 24.1573 8.00909C23.8586 8.07025 23.5677 8.15617 23.2886 8.26562C23.043 8.3631 22.8105 8.48297 22.5951 8.62315L21.9679 9.02714C21.9337 9.05125 21.8899 9.06305 21.8457 9.06003C21.8015 9.05702 21.7604 9.03942 21.7312 9.01098L20.382 7.81719C20.3654 7.80332 20.3523 7.78662 20.3438 7.76818C20.3352 7.74973 20.3313 7.72996 20.3323 7.71014C20.3343 7.67053 20.3537 7.63302 20.3867 7.6051C21.0404 7.09384 21.8096 6.70203 22.6472 6.45373C23.4683 6.20585 24.3325 6.07748 25.2035 6.07398C25.9847 6.06056 26.763 6.15818 27.5066 6.36283C28.0958 6.52621 28.6395 6.79087 29.1043 7.14051C29.5106 7.45267 29.8287 7.83944 30.0345 8.27168C30.233 8.69221 30.3351 9.14137 30.3351 9.59475V14.7557C30.3375 15.1052 30.3469 15.4344 30.3635 15.7293H30.3588ZM26.8651 11.8753C26.3243 11.8752 25.7839 11.8995 25.2461 11.948C24.7405 11.9881 24.2422 12.0797 23.762 12.2207C23.3644 12.3377 23.0028 12.5296 22.704 12.7822C22.5731 12.8988 22.4713 13.0367 22.4046 13.1877C22.3379 13.3387 22.3077 13.4997 22.3158 13.6609C22.3158 14.1942 22.5146 14.5658 22.9241 14.7941C23.4606 15.0567 24.0746 15.1816 24.6922 15.1536C25.2073 15.166 25.7191 15.0805 26.1905 14.9032C26.5739 14.7523 26.9121 14.5292 27.1799 14.2507C27.4283 13.9842 27.6133 13.6789 27.7243 13.3518C27.8334 13.0294 27.89 12.6957 27.8924 12.3601V11.8753H26.8651ZM39.3651 14.6285C39.3388 14.6155 39.309 14.6087 39.2787 14.6087C39.2484 14.6087 39.2186 14.6155 39.1923 14.6285C38.9722 14.7358 38.732 14.8096 38.4822 14.8466C38.2198 14.887 37.9536 14.9073 37.6869 14.9072C37.376 14.9244 37.0659 14.8641 36.7946 14.7335C36.5983 14.6161 36.4462 14.4526 36.3567 14.2628C36.2524 14.0414 36.1932 13.8064 36.1815 13.568C36.1649 13.2953 36.1578 13.0145 36.1578 12.7317V8.28784H39.2065C39.2293 8.28838 39.2519 8.28502 39.2732 8.27795C39.2944 8.27089 39.3138 8.26026 39.3301 8.2467C39.3464 8.23314 39.3594 8.21692 39.3682 8.19901C39.3771 8.1811 39.3817 8.16185 39.3817 8.1424V6.47999C39.3817 6.46036 39.3771 6.44092 39.3683 6.42279C39.3595 6.40465 39.3466 6.38817 39.3304 6.37429C39.3141 6.36041 39.2948 6.3494 39.2735 6.34189C39.2523 6.33438 39.2295 6.33051 39.2065 6.33051H36.1531V3.64196C36.1525 3.60267 36.1338 3.56517 36.101 3.53757C36.0682 3.50997 36.024 3.4945 35.978 3.49451H33.7293C33.7064 3.49451 33.6838 3.49839 33.6627 3.50592C33.6415 3.51346 33.6224 3.5245 33.6063 3.53841C33.5902 3.55232 33.5776 3.56881 33.569 3.58693C33.5605 3.60506 33.5562 3.62445 33.5565 3.64398V6.33051H31.1304C31.1077 6.33051 31.0852 6.33433 31.0643 6.34174C31.0433 6.34915 31.0243 6.36001 31.0082 6.3737C30.9922 6.38739 30.9794 6.40365 30.9708 6.42154C30.9621 6.43943 30.9576 6.4586 30.9576 6.47797V8.14038C30.9576 8.17914 30.9755 8.21635 31.0074 8.24394C31.0393 8.27154 31.0826 8.28731 31.128 8.28784H33.5565V13.4104C33.5565 13.8265 33.5779 14.2447 33.6181 14.6466C33.6557 15.056 33.8005 15.4529 34.0418 15.8081C34.311 16.1793 34.6996 16.4766 35.1614 16.6646C35.8207 16.9075 36.5364 17.0187 37.2538 16.9898C37.5922 16.9824 37.9298 16.9568 38.2645 16.913C38.648 16.8766 39.0203 16.7801 39.3627 16.6282C39.3893 16.6151 39.4114 16.5963 39.4268 16.5736C39.4422 16.5509 39.4503 16.5251 39.4503 16.4989V14.7537C39.4502 14.7283 39.4422 14.7034 39.4273 14.6814C39.4123 14.6594 39.3909 14.6412 39.3651 14.6285ZM44.0825 9.2049C44.3757 8.88893 44.7487 8.63346 45.1736 8.45752C45.6531 8.2656 46.178 8.17088 46.7074 8.18078C47.2458 8.16842 47.7802 8.26172 48.2696 8.45348C48.7424 8.65863 49.17 8.93198 49.5336 9.26145C49.5656 9.28716 49.608 9.30147 49.6519 9.30147C49.6959 9.30147 49.7383 9.28716 49.7703 9.26145L51.4698 7.94041C51.5029 7.9132 51.5231 7.87652 51.5266 7.83739C51.5275 7.81776 51.5237 7.79817 51.5156 7.77979C51.5075 7.7614 51.4951 7.74459 51.4792 7.73034C50.8915 7.18101 50.1622 6.75574 49.349 6.48807C48.5372 6.21833 47.6732 6.08128 46.8021 6.08408C45.9117 6.07335 45.0274 6.21056 44.1984 6.48807C43.4419 6.7414 42.756 7.12741 42.1852 7.62115C41.6144 8.11488 41.1713 8.70535 40.8847 9.35437C40.5701 10.0591 40.4136 10.8081 40.4231 11.5622C40.4134 12.3124 40.57 13.0573 40.8847 13.7579C41.1827 14.4081 41.6394 14.9968 42.2244 15.4849C42.8032 15.9671 43.4899 16.3449 44.2434 16.5959C45.0652 16.8678 45.9397 17.0048 46.821 16.9999C47.6754 16.9972 48.5227 16.868 49.3253 16.6181C50.1359 16.36 50.8594 15.9354 51.4319 15.3819C51.462 15.3545 51.4788 15.3184 51.4788 15.2809C51.4788 15.2434 51.462 15.2072 51.4319 15.1799L49.8318 13.8144C49.8001 13.7882 49.7576 13.7736 49.7135 13.7736C49.6693 13.7736 49.6269 13.7882 49.5951 13.8144C49.2599 14.1472 48.8524 14.4216 48.3951 14.6224C47.911 14.8148 47.3809 14.9082 46.8471 14.8951C46.3262 14.905 45.8089 14.8196 45.3299 14.6446C44.8967 14.4811 44.5082 14.2424 44.189 13.9437C43.8654 13.6385 43.6132 13.2833 43.4457 12.8974C43.2698 12.4865 43.1809 12.0522 43.183 11.6147C43.1833 11.17 43.2631 10.7279 43.4197 10.3037C43.5603 9.90605 43.7849 9.53365 44.0825 9.2049ZM63.539 8.28986C63.3219 7.81474 62.9868 7.38541 62.5567 7.03143C62.145 6.70371 61.6548 6.45628 61.1199 6.30627C60.574 6.15212 60.0025 6.07436 59.4275 6.076C58.5526 6.06065 57.6881 6.23953 56.9185 6.59513C56.4166 6.82533 55.9834 7.15083 55.6522 7.54652V0.464588C55.6522 0.42548 55.634 0.387974 55.6016 0.360321C55.5692 0.332667 55.5253 0.317132 55.4794 0.317132H53.2308C53.2081 0.316865 53.1856 0.320415 53.1645 0.32758C53.1434 0.334744 53.1242 0.345383 53.1079 0.358888C53.0917 0.372394 53.0787 0.388501 53.0697 0.406291C53.0607 0.42408 53.056 0.443203 53.0557 0.462568V16.5878C53.0556 16.6266 53.0735 16.6638 53.1054 16.6914C53.1373 16.719 53.1807 16.7347 53.2261 16.7353H55.4794C55.5022 16.7358 55.5249 16.7324 55.5461 16.7254C55.5673 16.7183 55.5867 16.7077 55.603 16.6941C55.6193 16.6806 55.6323 16.6643 55.6412 16.6464C55.65 16.6285 55.6546 16.6093 55.6546 16.5898V11.3844C55.6409 10.8873 55.7208 10.3915 55.8913 9.91592C56.0272 9.54773 56.2531 9.20832 56.554 8.92008C56.8249 8.66598 57.1623 8.47011 57.5387 8.34844C57.9348 8.22372 58.3544 8.16211 58.7766 8.16664C59.0983 8.16573 59.4181 8.20939 59.7234 8.29592C60.0217 8.37726 60.2945 8.5154 60.5211 8.69991C60.7699 8.91608 60.9606 9.17596 61.0797 9.46143C61.2319 9.83103 61.3041 10.2212 61.2927 10.6128V16.5959C61.2927 16.6346 61.3106 16.6718 61.3425 16.6994C61.3744 16.727 61.4177 16.7428 61.4631 16.7433H63.7165C63.7623 16.7433 63.8063 16.7278 63.8387 16.7001C63.8711 16.6725 63.8893 16.635 63.8893 16.5959V10.0836C63.9073 9.4721 63.7884 8.8633 63.539 8.28986ZM66.358 7.27989C66.4504 7.27552 66.5393 7.24813 66.6137 7.20111C67.4855 6.70214 68.3181 6.1549 69.1061 5.56293C70.0529 4.80949 70.9997 3.76518 70.9997 2.35122C71.0111 1.74 70.7388 1.14974 70.2421 0.709248C69.7454 0.268754 69.0648 0.0137909 68.3486 0C67.0231 0 66.3557 0.977654 66.3557 0.977654H66.3391C66.3391 0.977654 65.6716 0 64.3461 0C63.6298 0.0132639 62.9487 0.268063 62.4519 0.708674C61.9552 1.14928 61.683 1.73985 61.6951 2.35122C61.6951 3.76518 62.6561 4.80545 63.5887 5.56091C64.3775 6.15473 65.2108 6.70398 66.0835 7.20515C66.1666 7.25504 66.2658 7.28184 66.3675 7.28191L66.358 7.27989Z" fill="#1927F0"/>
</g>
<defs>
<clipPath id="clip0_1143_2667">
<rect width="71" height="17" fill="white"/>
</clipPath>
</defs>
</svg>
