<svg width="84" height="17" viewBox="0 0 84 17" fill="none" xmlns="http://www.w3.org/2000/svg">
<path d="M55.5054 0.885437C55.6513 0.912885 55.7962 0.952729 55.9452 0.96601C57.2875 1.09085 58.5873 1.34408 59.7982 1.87445C59.9493 1.94085 60.091 2.02143 60.2618 2.1082C60.2039 4.04283 59.9265 5.94205 59.3325 7.85367C59.9989 7.74919 60.5847 7.60309 61.1591 7.42158C62.3399 7.04971 63.3913 6.50518 64.2348 5.69236C65.1786 4.78216 65.7478 3.72762 65.8213 2.50663C65.842 2.16132 65.7281 1.80981 65.6743 1.46184C65.664 1.3919 65.6464 1.32195 65.634 1.26262C66.761 0.588822 67.9842 1.40606 68.037 2.26226C68.1581 4.23851 67.237 5.81367 65.5615 7.10549C64.3786 8.01747 63.0012 8.62752 61.4571 8.96575C61.3422 8.99054 61.2356 9.0419 61.067 9.1021C61.0483 9.36242 61.008 9.63778 61.0131 9.91315C61.0307 10.8437 61.1135 11.7699 61.5347 12.6411C61.8638 13.3211 62.3689 13.8701 63.2558 14.0498C63.916 14.1835 64.5535 14.0737 65.1672 13.8444C65.9196 13.5637 66.4639 13.0723 66.9493 12.5296C67.4761 11.9407 67.8662 11.2873 68.1394 10.5816C68.3992 9.91226 68.7066 9.2544 68.926 8.57528C69.1816 7.78195 69.3679 6.97268 69.3648 6.12622C69.7259 5.98898 70.0799 5.89424 70.4669 5.96153C71.2162 6.09169 71.6364 6.53174 71.6436 7.22325C71.6498 7.89263 71.4884 8.54252 71.2203 9.16585C70.8291 10.0769 70.381 10.9703 69.9971 11.8841C69.8181 12.3091 69.7011 12.758 69.6121 13.2042C69.5138 13.7018 69.8356 13.9799 70.4183 14.002C71.12 14.0286 71.6446 13.7125 72.1083 13.3406C72.9859 12.6376 73.643 11.8239 73.939 10.7853C74.2019 9.86179 74.6272 8.97283 74.9822 8.0644C73.8438 7.43841 73.6399 7.15153 73.8945 6.46356C74.1698 6.52023 74.4461 6.58664 74.7276 6.63268C75.0122 6.67872 75.302 6.70528 75.63 6.74512C75.7139 6.57955 75.7936 6.42018 75.8763 6.2608C76.3514 5.34174 76.8823 4.45012 77.6232 3.66299C77.9937 3.26898 78.4046 2.91481 78.9717 2.7271C79.0514 2.70054 79.1301 2.6669 79.2129 2.65273C80.1153 2.50398 80.6182 2.96351 80.3895 3.73028C80.1608 4.49705 79.6806 5.16466 79.2346 5.84554C79.0752 6.08903 78.9034 6.32632 78.7358 6.56981C79.0814 6.63356 79.6837 6.52997 80.4837 6.22096C81.0436 6.00492 81.5776 5.74018 82.1561 5.48252C82.3838 5.64809 82.419 5.89955 82.39 6.14481C82.3403 6.56716 82.1344 6.93106 81.7432 7.21262C81.0374 7.72085 80.2074 7.98825 79.3174 8.12549C78.8631 8.19632 78.3963 8.21846 77.9348 8.24414C77.675 8.2583 77.4732 8.31762 77.3428 8.52835C76.8202 9.37304 76.2541 10.2036 75.9602 11.1341C75.8132 11.6008 75.6952 12.0806 75.6414 12.5605C75.6114 12.8271 75.7025 13.1192 75.8101 13.3778C76.0129 13.8683 76.5004 14.0534 77.0654 14.0897C77.8023 14.1366 78.5008 13.9807 79.1663 13.7222C80.4982 13.2051 81.5672 12.4109 82.4397 11.4139C82.5214 11.3201 82.6094 11.2298 82.6963 11.1386C82.7067 11.1279 82.7263 11.1244 82.7408 11.1182C83.2365 11.2838 83.4922 11.7203 83.31 12.186C83.1848 12.5039 83.012 12.8155 82.805 13.1006C82.2637 13.8444 81.472 14.3694 80.6089 14.813C79.9145 15.1699 79.1704 15.4346 78.3798 15.609C77.4452 15.8153 76.5066 15.8569 75.5721 15.6568C74.8135 15.4939 74.2722 15.0698 73.9121 14.4801C73.8252 14.3376 73.7558 14.1862 73.6596 14.0047C73.5664 14.0773 73.4806 14.1357 73.4081 14.2048C72.8627 14.7254 72.2449 15.169 71.4998 15.4638C70.6346 15.8065 69.7456 15.9411 68.7956 15.7135C68.0929 15.5453 67.6158 15.1964 67.3519 14.6209C67.3219 14.5563 67.2794 14.4961 67.2256 14.4057C66.6823 14.806 66.1297 15.1495 65.4932 15.3815C64.5897 15.7109 63.6697 15.8215 62.6793 15.7126C61.602 15.5949 60.7617 15.1716 60.0766 14.4961C59.525 13.9524 59.229 13.2901 59.0158 12.6004C58.7353 11.6955 58.6743 10.772 58.6619 9.82549C58.5356 10.0628 58.4093 10.2992 58.2831 10.5365C58.1548 10.7773 58.0326 11.0208 57.8971 11.2599C57.2854 12.3427 56.532 13.3406 55.5292 14.1924C54.4591 15.1017 53.1966 15.7215 51.7022 15.8977C50.4944 16.0402 49.295 15.9535 48.2197 15.3611C47.6536 15.0486 47.2293 14.6368 46.9427 14.118C46.9013 14.0418 46.8526 13.9692 46.7874 13.863C46.5039 14.056 46.2576 14.234 45.9999 14.3987C44.935 15.0751 43.7738 15.5479 42.4409 15.7029C41.7682 15.7808 41.1152 15.8144 40.4435 15.6896C39.1375 15.4452 38.5683 14.6909 38.3189 13.8072C38.1119 13.0759 38.2061 12.3454 38.3975 11.6211C38.5031 11.2209 38.6055 10.8198 38.7204 10.3753C38.2951 10.4931 37.8904 10.625 37.4744 10.7136C37.0615 10.8012 36.6351 10.8428 36.2749 10.896C35.949 11.5459 35.683 12.1692 35.3301 12.7544C34.7371 13.7408 33.8978 14.558 32.7894 15.1495C31.56 15.8065 30.227 15.9836 28.832 15.6542C28.0993 15.4815 27.5104 15.0981 27.1037 14.5324C27.0054 14.3951 26.9102 14.2561 26.7932 14.0905C26.2675 14.6554 25.6538 15.1008 24.9283 15.4142C24.0104 15.81 23.0531 15.9871 22.0389 15.6825C21.4097 15.4939 20.9926 15.1398 20.8032 14.5864C20.6501 14.1366 20.6542 13.6921 20.7732 13.237C20.975 12.464 21.3879 11.7716 21.8267 11.0854C22.1569 10.5684 22.4963 10.0548 22.7933 9.52356C22.9465 9.24997 23.0376 8.94539 23.1173 8.64789C23.1825 8.40351 23.0945 8.1795 22.7954 8.00861C22.397 7.92981 21.9882 7.9971 21.5866 8.15914C20.7732 8.48763 20.1295 8.99851 19.5551 9.57049C18.2905 10.8287 17.3953 12.2613 16.8975 13.8674C16.793 14.2056 16.7578 14.5598 16.6916 14.9069C16.6585 15.0796 16.6284 15.2531 16.5995 15.4142C15.8554 15.7303 15.0999 15.4576 14.8598 14.8015C14.7284 14.4438 14.6994 14.0755 14.7574 13.708C14.8702 12.9944 14.9933 12.2807 15.1258 11.5698C15.3514 10.3612 15.7115 9.17914 16.1669 8.0219C16.5115 7.14533 16.9079 6.28028 17.3384 5.43117C17.861 4.39789 18.5523 3.44429 19.4392 2.60757C20.1078 1.97627 20.8953 1.46184 21.8909 1.28565C22.7488 1.13424 23.6099 1.12804 24.3322 1.67523C25.0039 2.18434 25.1612 2.8369 25.0525 3.56382C24.918 4.46341 24.4947 5.25763 23.8479 5.96861C23.8158 6.00315 23.7858 6.03945 23.7579 6.07663C23.7506 6.08726 23.7568 6.10497 23.7568 6.1457C23.9472 6.20679 24.1522 6.267 24.3519 6.33695C25.1053 6.59992 25.451 7.10726 25.5162 7.77575C25.5845 8.47523 25.3381 9.1207 24.979 9.72898C24.5992 10.3727 24.1656 10.9942 23.7537 11.6247C23.4753 12.0497 23.2135 12.4809 23.0924 12.9616C23.0531 13.1184 23.0283 13.2839 23.0427 13.4415C23.0831 13.886 23.5074 14.1481 24.0228 14.064C24.5299 13.9807 24.9511 13.7532 25.3237 13.4628C25.5389 13.2946 25.7252 13.0989 25.9218 12.9138C26.284 12.5729 26.4165 12.1816 26.4486 11.7105C26.5407 10.3762 27.0581 9.14992 27.9585 8.05289C28.5691 7.30914 29.3111 6.67783 30.2425 6.22539C30.94 5.88627 31.6862 5.68617 32.4893 5.64101C33.371 5.59143 34.0872 5.81632 34.5084 6.53617C34.6429 6.57247 34.7702 6.61763 34.9037 6.64153C35.5039 6.75044 35.9386 7.05236 36.189 7.51632C36.4881 8.07059 36.6444 8.65674 36.5026 9.27565C36.4933 9.31726 36.5016 9.36242 36.5016 9.43236C36.574 9.44653 36.6558 9.48195 36.7293 9.47309C37.4433 9.38632 38.1585 9.29513 38.8084 9.00382C39.2379 8.81169 39.389 8.87455 39.6849 8.05908C38.9822 7.72882 38.2744 7.37377 38.5062 6.47507C39.1251 6.57158 39.7077 6.6619 40.3007 6.75398C40.4735 6.42903 40.6308 6.13596 40.785 5.84289C41.2538 4.95127 41.8168 4.10924 42.593 3.38408C42.8621 3.13262 43.1518 2.89533 43.5348 2.77846C43.7573 2.71117 43.9942 2.65184 44.2271 2.64653C44.8201 2.63236 45.1223 2.89799 45.1078 3.4071C45.0954 3.85867 44.8977 4.27304 44.6587 4.6644C44.3006 5.25143 43.9042 5.82164 43.5254 6.39981C43.4861 6.46002 43.4561 6.52377 43.394 6.63533C44.6825 6.49013 45.7815 6.08815 46.7843 5.44002C47.1631 5.79065 47.0886 6.16341 46.9675 6.53085C46.8609 6.85403 46.6105 7.10106 46.301 7.2994C45.8012 7.61815 45.2548 7.85721 44.6462 7.99268C44.0129 8.13434 43.3743 8.24679 42.7182 8.24679C42.3746 8.24679 42.147 8.3619 41.97 8.62575C41.3439 9.56252 40.7757 10.5223 40.4922 11.5786C40.3597 12.0727 40.2427 12.5703 40.3814 13.1024C40.547 13.7381 41.0934 14.0737 41.8075 14.1012C42.4026 14.1242 42.9738 14.0197 43.5203 13.8417C44.669 13.469 45.6149 12.8386 46.4035 12.1462C46.5825 11.5228 46.6819 10.9491 46.9137 10.4178C47.5471 8.96752 48.7662 8.02101 50.5213 7.63851C51.1816 7.49507 51.8667 7.45169 52.5663 7.58627C53.505 7.7669 53.8951 8.31851 53.8548 8.9569C53.8465 9.08617 53.8196 9.21455 53.7968 9.37393C53.6654 9.34117 53.5681 9.32789 53.4832 9.29335C52.527 8.90554 51.5645 8.96221 50.6362 9.32789C49.8114 9.65283 49.3033 10.254 49.0218 10.9783C48.82 11.498 48.7693 12.0373 48.8521 12.5924C49.0414 13.8577 50.2802 14.4004 51.5925 14.1994C52.8095 14.0126 53.7078 13.3884 54.4591 12.5853C55.3988 11.5822 55.9887 10.4223 56.5103 9.23315C56.9274 8.28221 57.2296 7.30028 57.4345 6.30242C57.6425 5.28861 57.8339 4.26861 57.7584 3.20877C57.331 2.9582 56.8177 2.88294 56.323 2.78377C55.5282 2.62528 54.7106 2.61466 53.9055 2.68283C52.7867 2.77757 52.0561 3.38497 51.9992 4.34299C51.9764 4.72992 52.0344 5.10268 52.2351 5.4533C51.4559 5.67908 50.4003 5.22398 50.1829 4.45012C49.9294 3.54877 50.1664 2.2233 51.7135 1.48309C52.2931 1.20596 52.9233 1.07137 53.5702 0.973093C53.7006 0.953614 53.8268 0.915541 53.9562 0.885437C54.4705 0.885437 54.988 0.885437 55.5054 0.885437ZM34.2434 10.5542C32.806 9.6183 32.5255 8.44867 33.223 7.07627C31.9822 7.00721 31.0725 7.56768 30.4071 8.19898C29.0638 9.47309 28.5525 10.9907 28.7026 12.6827C28.7326 13.021 28.8713 13.3433 29.1093 13.623C29.5233 14.11 30.0945 14.3128 30.7755 14.203C31.5403 14.079 32.1716 13.7381 32.6942 13.2361C33.4942 12.4693 33.9713 11.5733 34.2434 10.5542ZM17.8382 9.14815C17.9076 9.0844 17.98 9.02242 18.0452 8.95601C18.7676 8.222 19.5686 7.55617 20.41 6.92132C20.9647 6.50341 21.4811 6.04565 21.9851 5.58346C22.5398 5.07434 22.843 4.45278 22.9631 3.76658C23.0676 3.17247 22.6039 2.81565 21.9437 3.01221C21.6612 3.09632 21.3859 3.24242 21.1582 3.40976C20.6035 3.81794 20.2144 4.34387 19.8501 4.88044C18.9414 6.2183 18.2874 7.65002 17.8382 9.14815Z" fill="black"/>
<path d="M0.655838 11.6875C0.744839 11.4369 0.841085 11.1881 0.922842 10.9358C1.42166 9.39518 3.13959 8.30346 4.95377 8.21315C5.36359 8.19278 5.78065 8.1795 6.18633 8.22288C7.07634 8.3194 7.90426 8.80992 7.50893 10.0212C7.40027 9.98486 7.29264 9.95476 7.19018 9.91492C6.15114 9.5094 5.1297 9.60236 4.17863 10.0831C3.43557 10.4594 3.07646 11.0784 3.02679 11.8168C2.99781 12.2462 3.03507 12.6677 3.26999 13.0652C3.64773 13.7036 4.28005 14.0604 5.05726 14.2313C5.75788 14.3845 6.46886 14.4057 7.1995 14.3579C8.1961 14.2933 9.07473 14.0135 9.87781 13.5327C10.5629 13.1228 11.069 12.5747 11.2863 11.8876C11.6785 10.6454 11.3794 9.63778 10.2317 8.87632C9.63772 8.48231 8.95986 8.17773 8.30684 7.8519C7.68176 7.54023 7.05978 7.2321 6.50611 6.82393C5.06243 5.76054 5.02207 3.67184 6.27637 2.47122C6.99769 1.78148 7.8846 1.32992 8.93916 1.11742C9.28482 1.04924 9.62633 0.963354 9.96992 0.885437C10.4532 0.885437 10.9355 0.885437 11.4188 0.885437C11.8007 0.958927 12.1815 1.03242 12.5634 1.10591C13.2123 1.23075 13.7918 1.47512 14.3134 1.82752C15.0223 2.30565 15.3648 2.95466 15.4342 3.69841C15.4714 4.09242 15.3514 4.49528 15.1134 4.84413C14.8267 5.26382 14.2813 5.66137 13.2081 5.4657C13.2236 5.3745 13.2247 5.27622 13.2568 5.18679C13.3934 4.81137 13.4078 4.42622 13.3106 4.0508C13.1502 3.43544 12.7238 2.97768 12.0232 2.76341C10.9448 2.43315 9.86022 2.43226 8.82739 2.89268C7.89391 3.30882 7.34024 4.312 7.9974 5.31252C8.21266 5.64101 8.49415 5.91815 8.87086 6.1094C9.62426 6.49278 10.3994 6.84518 11.1414 7.2445C11.663 7.52606 12.1815 7.82799 12.6348 8.18304C13.3447 8.7382 13.7245 9.45538 13.8021 10.2832C14.0143 12.5287 12.8014 14.0994 10.5991 15.1761C9.44936 15.7383 8.19403 16.0314 6.85902 16.0464C5.89449 16.0571 4.93204 16.073 3.99028 15.8348C2.91916 15.5639 1.98465 15.1176 1.3813 14.2889C1.14845 13.9692 1.01702 13.5947 0.848329 13.2423C0.772782 13.0829 0.720002 12.9147 0.655838 12.75C0.655838 12.3959 0.655838 12.0417 0.655838 11.6875Z" fill="black"/>
<path d="M73.1452 2.1436C73.1649 3.05026 72.3773 3.56823 71.5008 3.54521C70.737 3.52573 70.3013 3.23089 70.2092 2.58188C70.0954 1.77349 70.7784 0.944743 71.862 0.993441C72.8244 1.03683 73.1753 1.51495 73.1452 2.1436Z" fill="black"/>
</svg>
