<svg width="80" height="20" viewBox="0 0 80 20" fill="none" xmlns="http://www.w3.org/2000/svg">
<path d="M18.296 9.12754C18.2182 10.6215 17.0256 12.668 14.7203 15.2652C12.3372 17.9778 10.3205 19.3346 8.67022 19.3346C7.6489 19.3346 6.78428 18.5087 6.07748 16.8559L4.66275 12.3128C4.13857 10.661 3.57606 9.83407 2.97409 9.83407C2.84333 9.83407 2.3834 10.0758 1.59769 10.5574L0.773651 9.62685C1.63827 8.96177 2.49162 8.29571 3.33144 7.62866C4.48577 6.75636 5.35152 6.29653 5.92981 6.25015C7.29381 6.13569 8.13363 6.95272 8.44927 8.70028C8.78971 10.587 9.02531 11.7602 9.1572 12.2191C9.55062 13.7841 9.98349 14.5656 10.4558 14.5656C10.8233 14.5656 11.3745 14.0574 12.1095 13.043C12.8434 12.0276 13.2368 11.255 13.2898 10.7251C13.3946 9.84887 13.0012 9.40976 12.1095 9.40976C11.6891 9.40976 11.2562 9.49363 10.812 9.66138C11.6733 7.19053 13.3191 5.98965 15.7495 6.05773C17.5509 6.10411 18.3997 7.12738 18.296 9.12754" fill="#1AB7EA"/>
<path d="M25.6921 1.714C25.6661 2.28632 25.3381 2.83496 24.7068 3.36091C24.3755 3.64815 23.9822 3.87486 23.5499 4.02783C23.1176 4.1808 22.6548 4.25699 22.1885 4.25195C20.6926 4.25195 19.97 3.68062 20.023 2.53795C20.0478 1.94392 20.4491 1.3716 21.2224 0.822958C21.9969 0.275306 22.8558 0 23.8016 0C24.3529 0 24.8117 0.189458 25.1803 0.566401C25.5466 0.943343 25.718 1.32621 25.6921 1.714V1.714ZM29.1167 13.9686C28.3817 15.1843 27.3717 16.2865 26.0855 17.2732C24.3269 18.6044 22.5695 19.2705 20.811 19.2705C19.9959 19.2705 19.3737 19.0405 18.9408 18.5807C18.5079 18.1219 18.3039 17.5259 18.331 16.7907C18.3558 16.0339 18.6252 14.8626 19.137 13.2779C19.6487 11.6941 19.9058 10.8445 19.9058 10.73C19.9058 10.133 19.669 9.83406 19.1967 9.83406C19.04 9.83406 18.5925 10.0758 17.8575 10.5574L16.9523 9.62684L19.4718 7.62865C20.6002 6.75635 21.44 6.29652 21.9923 6.25014C22.8581 6.18206 23.4939 6.40506 23.9008 6.92015C24.3066 7.43623 24.4577 8.10427 24.354 8.92821C24.0124 10.3245 23.6449 12.0977 23.2515 14.2488C23.2245 15.2336 23.6314 15.725 24.4712 15.725C24.8387 15.725 25.4948 15.3856 26.4394 14.7057C27.2274 14.1393 27.87 13.6064 28.3693 13.1071L29.1167 13.9686Z" fill="#1AB7EA"/>
<path d="M53.7003 13.9676C52.9654 15.1843 51.9553 16.2855 50.6691 17.2722C48.9106 18.6034 47.152 19.2694 45.3946 19.2694C43.6879 19.2694 42.8616 18.4435 42.9146 16.7897C42.9394 16.0546 43.104 15.1724 43.4061 14.1393C43.7071 13.1051 43.8716 12.3019 43.8976 11.7276C43.9246 10.8563 43.6214 10.4192 42.989 10.4192C42.3047 10.4192 41.4886 11.1316 40.5405 12.5555C39.5406 14.0495 38.9995 15.4961 38.9218 16.8973C38.8654 17.886 38.9781 18.6438 39.2521 19.1718C37.4214 19.2181 36.1385 18.9537 35.4069 18.3794C34.7508 17.8742 34.451 17.0364 34.504 15.8641C34.5265 15.129 34.6573 14.3939 34.8906 13.6587C35.1217 12.9236 35.2502 12.2694 35.2762 11.6941C35.3325 10.8445 34.974 10.4192 34.212 10.4192C33.5548 10.4192 32.8446 11.0744 32.0837 12.3838C31.333 13.6558 30.9029 15.0539 30.8223 16.4838C30.7659 17.7715 30.8674 18.6665 31.1041 19.1718C29.3027 19.2181 28.0233 18.8856 27.2669 18.1751C26.6378 17.5801 26.3515 16.6752 26.4045 15.4605C26.427 14.8655 26.5499 14.0347 26.7664 12.97C26.9828 11.9043 27.1034 11.0744 27.1282 10.4784C27.1846 10.0669 27.0606 9.85969 26.7742 9.85969C26.6164 9.85969 26.17 10.0926 25.435 10.5573L24.4904 9.62682C24.6223 9.53604 25.4474 8.86899 26.9704 7.62863C28.0729 6.73364 28.8203 6.27381 29.2137 6.25111C29.8968 6.20473 30.4469 6.45142 30.8674 6.99118C31.2867 7.53094 31.4975 8.15753 31.4975 8.86899C31.4975 9.0989 31.475 9.31698 31.4186 9.5242C31.7992 9.00847 32.2632 8.5438 32.7962 8.1447C34.0035 7.22702 35.3551 6.70897 36.851 6.5945C38.1372 6.50273 39.0548 6.7662 39.6072 7.38687C40.0524 7.89209 40.2621 8.61637 40.2362 9.55774C40.4199 9.42058 40.6172 9.2706 40.828 9.10976C41.43 8.49007 42.0206 7.99669 42.5978 7.62863C43.5684 7.00796 44.5807 6.66358 45.6291 6.5945C46.8893 6.50273 47.7946 6.76521 48.3458 7.38391C48.817 7.88716 49.0278 8.60848 48.9759 9.5459C48.9489 10.1873 48.7719 11.1198 48.4439 12.3444C48.1147 13.5689 47.9524 14.2715 47.9524 14.455C47.9253 14.9366 47.9783 15.2681 48.1091 15.4507C48.241 15.6342 48.5543 15.725 49.0537 15.725C49.4212 15.725 50.0762 15.3856 51.0219 14.7047C51.8088 14.1393 52.4525 13.6064 52.9518 13.1071L53.7003 13.9676Z" fill="#1AB7EA"/>
<path d="M59.5261 10.3343C59.5509 9.71761 59.2634 9.40875 58.6615 9.40875C57.8746 9.40875 57.0754 9.88338 56.2638 10.8317C55.451 11.7799 55.0317 12.6887 55.0057 13.5571C54.9911 13.5571 54.9911 13.7061 55.0057 14.0031C56.2683 13.6042 57.4108 12.9594 58.347 12.1174C59.1068 11.3862 59.499 10.7912 59.5261 10.3343V10.3343ZM68.462 13.9321C67.7011 15.0343 66.2052 16.1345 63.9743 17.2357C61.1933 18.635 58.3706 19.3336 55.5107 19.3336C53.3858 19.3336 51.8618 18.7139 50.9442 17.4735C50.2881 16.6239 49.9736 15.6135 49.9995 14.4422C50.0254 12.5822 50.9712 10.8139 52.8346 9.1364C54.8806 7.29906 57.2952 6.37939 60.0773 6.37939C62.6498 6.37939 64.0138 7.29708 64.1716 9.1295C64.2764 10.2978 63.5415 11.5017 61.9667 12.7391C60.287 14.0919 58.1734 14.9504 55.6291 15.3165C56.1003 15.8898 56.8082 16.176 57.754 16.176C59.6433 16.176 61.704 15.7556 63.9349 14.9139C65.5356 14.3228 66.7959 13.7091 67.7146 13.0726L68.462 13.9321Z" fill="#1AB7EA"/>
<path d="M74.6992 11.4928C74.7324 10.9116 74.632 10.3304 74.4039 9.78375C74.1807 9.26669 73.8583 9.00619 73.4401 9.00619C72.1009 9.00619 70.9984 9.63969 70.1338 10.9057C69.3977 11.9418 69.0031 13.047 68.9524 14.2192C68.9253 14.7955 69.0437 15.3027 69.3063 15.7389C69.5938 16.2461 70.0007 16.4987 70.5272 16.4987C71.7074 16.4987 72.7186 15.8898 73.5584 14.6692C74.2664 13.6558 74.6462 12.597 74.6992 11.4928V11.4928ZM79.1475 11.6231C79.0426 13.7338 78.151 15.5573 76.4713 17.0937C74.7917 18.6301 72.704 19.3988 70.2115 19.3988C68.1385 19.3988 66.5637 18.8136 65.4883 17.6433C64.7014 16.772 64.2674 15.6826 64.1896 14.3761C64.0566 12.4026 64.8705 10.5909 66.6302 8.93909C68.5195 7.1047 70.8936 6.18701 73.7546 6.18701C75.5909 6.18701 76.982 6.72677 77.9278 7.80431C78.8206 8.79107 79.2264 10.064 79.1475 11.6231" fill="#1AB7EA"/>
</svg>
