<svg width="149" height="34" viewBox="0 0 149 34" fill="none" xmlns="http://www.w3.org/2000/svg">
<path d="M49.9368 13.0598L52.9182 18.4454L55.9106 13.0598H57.7565L53.7636 19.9594V23.7999H52.055V19.9284L48.0776 13.0598H49.9368Z" fill="white"/>
<path d="M58.9209 23.7999L63.2457 13.0598H64.6401L68.9494 23.7999H67.1478L65.9991 20.8803H61.8558L60.7358 23.7999H58.9209ZM63.9429 14.9524L62.159 19.623H65.6671L63.9429 14.9524Z" fill="white"/>
<path d="M71.9573 13.0598L74.9387 18.4454L77.9311 13.0598H79.777L75.7842 19.9594V23.7999H74.0755V19.9284L70.0981 13.0598H71.9573Z" fill="white"/>
<path d="M83.2559 23.7999V13.0753H84.3005V23.7999H83.2559Z" fill="white"/>
<path d="M98.652 23.7999V14.9812L94.7344 21.8033H94.1147L90.1816 14.9812V23.7999H89.1392V13.0598H90.2126L94.4179 20.4132L98.6232 13.0598H99.6967V23.7999H98.652Z" fill="white"/>
<path d="M103.399 23.7999L107.892 13.0598H108.756L113.246 23.7999H112.111L110.723 20.442H105.898L104.522 23.7999H103.399ZM108.331 14.3016L106.122 19.6097H110.482L108.331 14.3016Z" fill="white"/>
<path d="M124.696 22.2416C123.697 23.3307 122.553 23.8752 121.263 23.8752C120.568 23.8822 119.88 23.7212 119.26 23.406C118.655 23.0984 118.115 22.6776 117.669 22.1664C117.219 21.6503 116.864 21.0591 116.62 20.4199C116.37 19.7817 116.241 19.1022 116.241 18.4166C116.239 17.7137 116.364 17.0162 116.611 16.358C116.847 15.7237 117.195 15.1373 117.64 14.6271C118.079 14.128 118.613 13.7217 119.212 13.4317C119.832 13.1318 120.514 12.9788 121.203 12.9846C121.685 12.9802 122.165 13.0389 122.631 13.1595C123.035 13.2654 123.422 13.4279 123.78 13.642C124.111 13.8428 124.409 14.0929 124.665 14.3836C124.916 14.6702 125.13 14.9879 125.3 15.3288L124.484 15.8733C124.18 15.2599 123.702 14.7501 123.109 14.4079C122.52 14.089 121.858 13.9274 121.188 13.9386C120.628 13.9298 120.075 14.0591 119.577 14.3149C119.103 14.5629 118.686 14.9057 118.351 15.3221C118.007 15.7506 117.743 16.2372 117.571 16.7587C117.391 17.2973 117.3 17.8619 117.301 18.4299C117.299 19.0188 117.404 19.6032 117.611 20.1543C117.807 20.6789 118.096 21.1635 118.466 21.5842C118.824 21.9894 119.259 22.3203 119.745 22.5582C120.241 22.8017 120.786 22.926 121.339 22.9212C121.95 22.9221 122.552 22.7739 123.094 22.4896C123.712 22.1491 124.257 21.6894 124.696 21.1371V19.3375H122.321V18.5207H125.604V23.8H124.696V22.2416Z" fill="white"/>
<path d="M137.172 22.8614V23.7999H129.957V13.0598H137.035V13.9984H131.002V17.8721H136.265V18.7619H131.002V22.8614H137.172Z" fill="white"/>
<path d="M147.473 15.0741C147.136 14.7067 146.72 14.4212 146.256 14.2396C145.71 14.0214 145.126 13.9138 144.538 13.9231C143.58 13.9231 142.885 14.1002 142.451 14.461C142.238 14.6374 142.068 14.861 141.955 15.1141C141.843 15.3672 141.791 15.643 141.803 15.9197C141.791 16.195 141.851 16.4686 141.975 16.7144C142.108 16.9365 142.295 17.121 142.52 17.25C142.814 17.4212 143.128 17.5537 143.456 17.6441C143.835 17.7547 144.282 17.8654 144.795 17.9761C145.316 18.0829 145.831 18.2166 146.338 18.3767C146.752 18.5032 147.145 18.6921 147.502 18.9368C147.813 19.1495 148.068 19.4353 148.243 19.7691C148.427 20.1478 148.516 20.5657 148.502 20.9865C148.513 21.4322 148.414 21.8737 148.215 22.2726C148.023 22.6348 147.747 22.9459 147.411 23.1801C147.04 23.4344 146.625 23.6169 146.187 23.718C145.682 23.8367 145.164 23.8947 144.645 23.8907C143.064 23.9282 141.526 23.3731 140.333 22.3346L140.846 21.4713C141.3 21.9251 141.841 22.2827 142.436 22.5227C143.139 22.8168 143.895 22.9629 144.658 22.9521C145.515 22.9521 146.186 22.7987 146.672 22.4917C146.907 22.345 147.098 22.1377 147.226 21.8916C147.353 21.6454 147.412 21.3695 147.396 21.0928C147.406 20.799 147.336 20.5081 147.192 20.2516C147.039 20.0085 146.828 19.8064 146.579 19.6628C146.259 19.4762 145.916 19.3319 145.559 19.2334C145.151 19.1116 144.678 18.9899 144.144 18.8704C143.58 18.7375 143.086 18.6025 142.661 18.4609C142.28 18.34 141.921 18.1608 141.595 17.9296C141.32 17.7323 141.097 17.4709 140.946 17.1681C140.79 16.8245 140.714 16.4498 140.725 16.0724C140.717 15.6149 140.813 15.1616 141.006 14.7465C141.186 14.3657 141.456 14.0339 141.792 13.7792C142.155 13.5097 142.566 13.31 143.002 13.1904C143.506 13.0494 144.028 12.9809 144.552 12.9868C145.199 12.9763 145.843 13.0859 146.451 13.3099C147.007 13.5252 147.521 13.8353 147.971 14.2263L147.473 15.0741Z" fill="white"/>
<path d="M33.1706 19.1847C33.1806 21.1726 32.6217 23.1218 31.5598 24.8023C30.4979 26.4827 28.9774 27.8242 27.1778 28.6684C25.3782 29.5125 23.3747 29.8241 21.4038 29.5662C19.4329 29.3084 17.5769 28.4919 16.055 27.2132L11.334 31.9347H40.7954C41.0326 31.9347 41.26 31.8405 41.4277 31.6728C41.5954 31.5051 41.6896 31.2776 41.6896 31.0404V7.32675C41.689 7.08996 41.5946 6.86306 41.4269 6.69584C41.2593 6.52861 41.0322 6.43469 40.7954 6.43469H36.8336L30.7337 12.5374C32.3008 14.3987 33.1641 16.7515 33.1728 19.1847H33.1706Z" fill="#61BBFF"/>
<path d="M22.6992 10.6692C21.0983 10.6605 19.5277 11.1058 18.1696 11.9536C16.8114 12.8013 15.7214 14.0167 15.0259 15.4589C14.3304 16.901 14.0579 18.5107 14.24 20.1015C14.4221 21.6922 15.0514 23.1987 16.0549 24.4463L27.9625 12.5374C26.4714 11.3345 24.615 10.6756 22.6992 10.6692Z" fill="#61BBFF"/>
<path d="M35.2822 32.9128V33.9997H39.6491C40.434 33.9997 41.1866 33.6879 41.7416 33.1329C42.2966 32.5779 42.6083 31.8251 42.6083 31.0402V7.32652C42.6083 6.54161 42.2966 5.78885 41.7416 5.23383C41.1866 4.67882 40.434 4.36701 39.6491 4.36701H30.0367V5.45386L31.1035 5.24136C31.1035 5.23915 31.0061 4.75881 30.6741 3.04553C30.5993 2.61233 30.4822 2.1875 30.3244 1.77717C30.0913 1.14974 29.6273 0.635068 29.0274 0.338364C28.4188 0.0506037 27.7946 0.00190599 27.0731 -0.00030755H16.0353C15.5864 -0.010104 15.1378 0.0314853 14.6984 0.12365C14.0388 0.26005 13.4588 0.649405 13.0827 1.20829C12.7477 1.77203 12.5273 2.39639 12.4342 3.04553C12.1022 4.75881 12.007 5.23915 12.0048 5.24136L13.0716 5.45386V4.36701H3.4592C2.67437 4.36701 1.92168 4.67882 1.36672 5.23383C0.811766 5.78885 0.5 6.54161 0.5 7.32652V31.0402C0.5 31.8251 0.811766 32.5779 1.36672 33.1329C1.92168 33.6879 2.67437 33.9997 3.4592 33.9997H35.2822V31.826H3.4592C3.25081 31.826 3.05096 31.7432 2.9036 31.5958C2.75625 31.4485 2.67346 31.2486 2.67346 31.0402V7.32652C2.67405 7.11849 2.7571 6.91919 2.90439 6.7723C3.05168 6.62541 3.2512 6.54292 3.4592 6.54292H13.0716C13.3232 6.54317 13.567 6.45615 13.7615 6.29671C13.9561 6.13726 14.0893 5.91527 14.1385 5.66858L14.5678 3.45725C14.6168 3.16518 14.6931 2.87836 14.7958 2.6006C14.922 2.33055 14.9308 2.35712 15.0193 2.29957C15.347 2.19043 15.6931 2.14754 16.0375 2.17339H27.0731C27.355 2.16478 27.637 2.18705 27.9141 2.2398C28.1709 2.31949 28.131 2.31506 28.2174 2.41467C28.3844 2.74076 28.4931 3.09364 28.5383 3.45725C28.8703 5.17496 28.9677 5.66415 28.9699 5.66858C29.0191 5.91505 29.1524 6.13677 29.347 6.29585C29.5416 6.45493 29.7854 6.54148 30.0367 6.54071H39.6491C39.8575 6.54071 40.0574 6.6235 40.2047 6.77087C40.3521 6.91824 40.4349 7.11811 40.4349 7.32652V31.0402C40.4349 31.2486 40.3521 31.4485 40.2047 31.5958C40.0574 31.7432 39.8575 31.826 39.6491 31.826H35.2822V32.9128Z" fill="white"/>
<path d="M31.0458 19.1847H30.0698C30.0698 21.1542 29.387 23.0628 28.1378 24.5853C26.8885 26.1078 25.15 27.15 23.2186 27.5344C21.2871 27.9188 19.2821 27.6215 17.5453 26.6932C15.8084 25.7649 14.4471 24.2631 13.6933 22.4435C12.9394 20.624 12.8397 18.5994 13.4112 16.7146C13.9826 14.8298 15.1898 13.2014 16.827 12.107C18.4643 11.0125 20.4304 10.5197 22.3903 10.7124C24.3501 10.9051 26.1826 11.7714 27.5754 13.1638C28.3674 13.9534 28.9956 14.8919 29.4237 15.9252C29.8517 16.9584 30.0713 18.0662 30.0698 19.1847H32.0264C32.0264 17.1139 31.4124 15.0896 30.262 13.3678C29.1117 11.646 27.4766 10.304 25.5637 9.51159C23.6507 8.71914 21.5458 8.51179 19.515 8.91578C17.4842 9.31977 15.6188 10.3169 14.1547 11.7812C12.6906 13.2455 11.6935 15.1111 11.2895 17.142C10.8856 19.173 11.0929 21.2782 11.8853 23.1914C12.6777 25.1045 14.0195 26.7397 15.7411 27.8902C17.4627 29.0407 19.4868 29.6547 21.5574 29.6547C24.3339 29.6547 26.9967 28.5516 28.9601 26.5881C30.9234 24.6246 32.0264 21.9615 32.0264 19.1847H31.0458Z" fill="white"/>
<path d="M35.7737 4.9627C35.6728 4.86157 35.5529 4.78134 35.4209 4.7266C35.2889 4.67186 35.1474 4.64368 35.0046 4.64368C34.8617 4.64368 34.7202 4.67186 34.5882 4.7266C34.4563 4.78134 34.3364 4.86157 34.2354 4.9627L27.4959 11.7029C27.4409 11.7678 27.3941 11.8392 27.3564 11.9154C27.8132 12.2448 28.2446 12.6081 28.6468 13.0023L28.8991 13.3299C28.9465 13.3041 28.9916 13.2745 29.0341 13.2413L35.7737 6.50111C35.8748 6.40016 35.955 6.28026 36.0098 6.14827C36.0645 6.01629 36.0927 5.8748 36.0927 5.7319C36.0927 5.58901 36.0645 5.44752 36.0098 5.31553C35.955 5.18355 35.8748 5.06365 35.7737 4.9627Z" fill="white"/>
<path d="M8.51869 33.606L15.5349 26.589C15.6259 26.4981 15.698 26.39 15.7473 26.2712C15.7965 26.1523 15.8218 26.0249 15.8218 25.8962C15.8218 25.7675 15.7965 25.6401 15.7473 25.5212C15.698 25.4024 15.6259 25.2943 15.5349 25.2034C15.4439 25.1124 15.3359 25.0402 15.217 24.991C15.0982 24.9417 14.9708 24.9164 14.8421 24.9164C14.7135 24.9164 14.5861 24.9417 14.4672 24.991C14.3483 25.0402 14.2403 25.1124 14.1494 25.2034L7.13315 32.2203C6.94942 32.404 6.84619 32.6533 6.84619 32.9131C6.84619 33.173 6.94942 33.4222 7.13315 33.606C7.31688 33.7897 7.56608 33.8929 7.82592 33.8929C8.08576 33.8929 8.33495 33.7897 8.51869 33.606Z" fill="white"/>
<path d="M6.14851 11.6874C6.7866 11.6874 7.30387 11.1701 7.30387 10.5319C7.30387 9.89379 6.7866 9.37646 6.14851 9.37646C5.51043 9.37646 4.99316 9.89379 4.99316 10.5319C4.99316 11.1701 5.51043 11.6874 6.14851 11.6874Z" fill="white"/>
<path d="M32.7147 3.4641H38.8301C39.1183 3.4641 39.3947 3.3496 39.5985 3.14577C39.8023 2.94195 39.9168 2.66551 39.9168 2.37725C39.9168 2.089 39.8023 1.81256 39.5985 1.60874C39.3947 1.40491 39.1183 1.29041 38.8301 1.29041H32.7147C32.4265 1.29041 32.15 1.40491 31.9462 1.60874C31.7424 1.81256 31.6279 2.089 31.6279 2.37725C31.6279 2.66551 31.7424 2.94195 31.9462 3.14577C32.15 3.3496 32.4265 3.4641 32.7147 3.4641Z" fill="white"/>
</svg>
