<svg width="123" height="17" viewBox="0 0 123 17" fill="none" xmlns="http://www.w3.org/2000/svg">
<path d="M3.08301 0.359375L6.71387 7.8252L10.3447 0.359375H13.3311L8.06738 10.2422V16H5.34961V10.2422L0.0859375 0.359375H3.08301ZM19.9053 2.44336L15.2324 16H12.4072L18.2939 0.359375H20.0986L19.9053 2.44336ZM23.8154 16L19.1318 2.44336L18.9277 0.359375H20.7432L26.6514 16H23.8154ZM23.5898 10.1992V12.3369H15.082V10.1992H23.5898ZM28.6709 0.359375L32.3018 7.8252L35.9326 0.359375H38.9189L33.6553 10.2422V16H30.9375V10.2422L25.6738 0.359375H28.6709ZM48.1143 0.359375V16H46.793V0.359375H48.1143ZM52.7764 0.359375H54.1084L59.8877 14.1309L65.6777 0.359375H66.999L60.3926 16H59.3828L52.7764 0.359375ZM52.3682 0.359375H53.5391L53.6787 9.16797V16H52.3682V0.359375ZM66.2578 0.359375H67.4287V16H66.1074V9.16797L66.2578 0.359375ZM76.7314 1.29395L71.3174 16H69.9424L75.8506 0.359375H76.8066L76.7314 1.29395ZM81.6514 16L76.2266 1.29395L76.1514 0.359375H77.1074L83.0264 16H81.6514ZM80.6846 10.4785V11.6172H72.3809V10.4785H80.6846ZM96.4971 8.56641V14.1309C96.318 14.3958 96.0101 14.6895 95.5732 15.0117C95.1364 15.334 94.5492 15.6169 93.8115 15.8604C93.0739 16.0967 92.1572 16.2148 91.0615 16.2148C90.1449 16.2148 89.3034 16.0501 88.5371 15.7207C87.7708 15.3913 87.1048 14.915 86.5391 14.292C85.9805 13.6618 85.5472 12.9062 85.2393 12.0254C84.9385 11.1445 84.7881 10.1562 84.7881 9.06055V7.16992C84.7881 6.0957 84.9277 5.12891 85.207 4.26953C85.4863 3.40299 85.891 2.66178 86.4209 2.0459C86.9508 1.43001 87.5882 0.960938 88.333 0.638672C89.085 0.309245 89.9264 0.144531 90.8574 0.144531C92.0176 0.144531 92.9951 0.345052 93.79 0.746094C94.585 1.14714 95.2044 1.69857 95.6484 2.40039C96.0996 3.09505 96.3789 3.88281 96.4863 4.76367H95.165C95.0648 4.14062 94.8571 3.56771 94.542 3.04492C94.2269 2.51497 93.7686 2.08887 93.167 1.7666C92.5726 1.44434 91.8027 1.2832 90.8574 1.2832C90.0983 1.2832 89.4215 1.42285 88.8271 1.70215C88.2399 1.98145 87.7458 2.37891 87.3447 2.89453C86.9437 3.41016 86.6393 4.02962 86.4316 4.75293C86.224 5.46908 86.1201 6.26758 86.1201 7.14844V9.06055C86.1201 9.97721 86.2347 10.8044 86.4639 11.542C86.7002 12.2796 87.0368 12.9134 87.4736 13.4434C87.9105 13.9733 88.4333 14.3815 89.042 14.668C89.6507 14.9473 90.3275 15.0869 91.0723 15.0869C91.8672 15.0869 92.5439 15.0117 93.1025 14.8613C93.6611 14.7109 94.1087 14.5319 94.4453 14.3242C94.7891 14.1094 95.0361 13.9089 95.1865 13.7227V9.69434H90.9863V8.56641H96.4971ZM110 14.8721V16H101.202V14.8721H110ZM101.6 0.359375V16H100.278V0.359375H101.6ZM108.904 7.37402V8.50195H101.202V7.37402H108.904ZM109.946 0.359375V1.49805H101.202V0.359375H109.946ZM121.655 12.1543C121.655 11.7246 121.584 11.3415 121.44 11.0049C121.297 10.6683 121.061 10.3675 120.731 10.1025C120.409 9.8304 119.972 9.57975 119.421 9.35059C118.877 9.11426 118.196 8.88151 117.38 8.65234C116.599 8.43034 115.894 8.18685 115.264 7.92188C114.633 7.6569 114.093 7.35254 113.642 7.00879C113.198 6.66504 112.857 6.264 112.621 5.80566C112.385 5.34017 112.267 4.79948 112.267 4.18359C112.267 3.58203 112.396 3.03418 112.653 2.54004C112.911 2.0459 113.273 1.61979 113.738 1.26172C114.211 0.903646 114.766 0.62793 115.403 0.43457C116.048 0.241211 116.753 0.144531 117.52 0.144531C118.615 0.144531 119.561 0.352214 120.355 0.767578C121.158 1.18294 121.777 1.74512 122.214 2.4541C122.658 3.15592 122.88 3.94368 122.88 4.81738H121.559C121.559 4.13704 121.397 3.5319 121.075 3.00195C120.76 2.46484 120.302 2.0459 119.7 1.74512C119.106 1.43717 118.379 1.2832 117.52 1.2832C116.66 1.2832 115.937 1.41569 115.35 1.68066C114.77 1.93848 114.329 2.28581 114.028 2.72266C113.735 3.15234 113.588 3.63216 113.588 4.16211C113.588 4.53451 113.66 4.87826 113.803 5.19336C113.946 5.5013 114.179 5.79134 114.501 6.06348C114.83 6.32845 115.264 6.5791 115.801 6.81543C116.338 7.0446 117 7.26302 117.788 7.4707C118.619 7.69987 119.356 7.9541 120.001 8.2334C120.646 8.5127 121.19 8.83496 121.634 9.2002C122.078 9.55827 122.414 9.97721 122.644 10.457C122.873 10.9368 122.987 11.4954 122.987 12.1328C122.987 12.7702 122.851 13.3431 122.579 13.8516C122.314 14.3529 121.938 14.779 121.451 15.1299C120.971 15.4808 120.402 15.7493 119.743 15.9355C119.091 16.1217 118.379 16.2148 117.605 16.2148C116.911 16.2148 116.22 16.1253 115.532 15.9463C114.845 15.7673 114.215 15.4915 113.642 15.1191C113.076 14.7396 112.621 14.2526 112.277 13.6582C111.941 13.0638 111.772 12.3548 111.772 11.5312H113.083C113.083 12.1901 113.215 12.7451 113.48 13.1963C113.745 13.6475 114.096 14.0127 114.533 14.292C114.977 14.5713 115.464 14.7754 115.994 14.9043C116.531 15.026 117.068 15.0869 117.605 15.0869C118.429 15.0869 119.142 14.9652 119.743 14.7217C120.352 14.4782 120.821 14.138 121.15 13.7012C121.487 13.2572 121.655 12.7415 121.655 12.1543Z" fill="#111827"/>
</svg>
