<svg width="148" height="34" viewBox="0 0 148 34" fill="none" xmlns="http://www.w3.org/2000/svg">
<path d="M49.4368 13.0599L52.4182 18.4454L55.4106 13.0599H57.2565L53.2636 19.9595V23.8H51.555V19.9285L47.5776 13.0599H49.4368Z" fill="#333333"/>
<path d="M58.4209 23.8L62.7457 13.0599H64.1401L68.4494 23.8H66.6478L65.4991 20.8803H61.3558L60.2358 23.8H58.4209ZM63.4429 14.9525L61.659 19.623H65.1671L63.4429 14.9525Z" fill="#333333"/>
<path d="M71.4573 13.0599L74.4387 18.4454L77.4311 13.0599H79.277L75.2842 19.9595V23.8H73.5755V19.9285L69.5981 13.0599H71.4573Z" fill="#333333"/>
<path d="M82.7559 23.8V13.0754H83.8005V23.8H82.7559Z" fill="#333333"/>
<path d="M98.152 23.8V14.9812L94.2344 21.8034H93.6147L89.6816 14.9812V23.8H88.6392V13.0599H89.7126L93.9179 20.4133L98.1232 13.0599H99.1967V23.8H98.152Z" fill="#333333"/>
<path d="M102.899 23.8L107.392 13.0599H108.256L112.746 23.8H111.611L110.223 20.4421H105.398L104.022 23.8H102.899ZM107.831 14.3017L105.622 19.6098H109.982L107.831 14.3017Z" fill="#333333"/>
<path d="M124.196 22.2417C123.197 23.3307 122.053 23.8753 120.763 23.8753C120.068 23.8822 119.38 23.7213 118.76 23.406C118.155 23.0985 117.615 22.6777 117.169 22.1664C116.719 21.6503 116.364 21.0591 116.12 20.4199C115.87 19.7817 115.741 19.1022 115.741 18.4167C115.739 17.7137 115.864 17.0162 116.111 16.3581C116.347 15.7237 116.695 15.1373 117.14 14.6271C117.579 14.1281 118.113 13.7217 118.712 13.4318C119.332 13.1318 120.014 12.9788 120.703 12.9846C121.185 12.9802 121.665 13.039 122.131 13.1595C122.535 13.2654 122.922 13.4279 123.28 13.6421C123.611 13.8429 123.909 14.0929 124.165 14.3836C124.416 14.6702 124.63 14.9879 124.8 15.3288L123.984 15.8733C123.68 15.2599 123.202 14.7501 122.609 14.4079C122.02 14.089 121.358 13.9274 120.688 13.9387C120.128 13.9298 119.575 14.0591 119.077 14.315C118.603 14.5629 118.186 14.9057 117.851 15.3221C117.507 15.7506 117.243 16.2372 117.071 16.7587C116.891 17.2974 116.8 17.8619 116.801 18.4299C116.799 19.0188 116.904 19.6032 117.111 20.1543C117.307 20.6789 117.596 21.1635 117.966 21.5842C118.324 21.9894 118.759 22.3203 119.245 22.5582C119.741 22.8017 120.286 22.9261 120.839 22.9212C121.45 22.9221 122.052 22.7739 122.594 22.4896C123.212 22.1491 123.757 21.6894 124.196 21.1371V19.3375H121.821V18.5207H125.104V23.8H124.196V22.2417Z" fill="#333333"/>
<path d="M136.672 22.8615V23.8H129.457V13.0599H136.535V13.9984H130.502V17.8721H135.765V18.762H130.502V22.8615H136.672Z" fill="#333333"/>
<path d="M146.973 15.0742C146.636 14.7068 146.22 14.4213 145.756 14.2397C145.21 14.0215 144.626 13.9139 144.038 13.9232C143.08 13.9232 142.385 14.1003 141.951 14.4611C141.738 14.6375 141.568 14.861 141.455 15.1142C141.343 15.3673 141.291 15.643 141.303 15.9198C141.291 16.1951 141.351 16.4687 141.475 16.7145C141.608 16.9366 141.795 17.121 142.02 17.2501C142.314 17.4213 142.628 17.5538 142.956 17.6441C143.335 17.7548 143.782 17.8655 144.295 17.9762C144.816 18.083 145.331 18.2167 145.838 18.3768C146.252 18.5033 146.645 18.6922 147.002 18.9368C147.313 19.1496 147.568 19.4354 147.743 19.7691C147.927 20.1479 148.016 20.5658 148.002 20.9866C148.013 21.4323 147.914 21.8738 147.715 22.2727C147.523 22.6349 147.247 22.946 146.911 23.1802C146.54 23.4345 146.125 23.617 145.687 23.7181C145.182 23.8368 144.664 23.8948 144.145 23.8908C142.564 23.9283 141.026 23.3732 139.833 22.3346L140.346 21.4714C140.8 21.9252 141.341 22.2828 141.936 22.5228C142.639 22.8169 143.395 22.963 144.158 22.9522C145.015 22.9522 145.686 22.7987 146.172 22.4918C146.407 22.3451 146.598 22.1378 146.726 21.8916C146.853 21.6455 146.912 21.3695 146.896 21.0928C146.906 20.7991 146.836 20.5081 146.692 20.2517C146.539 20.0086 146.328 19.8065 146.079 19.6629C145.759 19.4763 145.416 19.332 145.059 19.2335C144.651 19.1117 144.178 18.99 143.644 18.8704C143.08 18.7376 142.586 18.6026 142.161 18.4609C141.78 18.3401 141.421 18.1609 141.095 17.9297C140.82 17.7324 140.597 17.471 140.446 17.1682C140.29 16.8246 140.214 16.4498 140.225 16.0725C140.217 15.615 140.313 15.1617 140.506 14.7466C140.686 14.3658 140.956 14.034 141.292 13.7793C141.655 13.5097 142.066 13.3101 142.502 13.1905C143.006 13.0495 143.528 12.9809 144.052 12.9868C144.699 12.9764 145.343 13.086 145.951 13.31C146.507 13.5253 147.021 13.8354 147.471 14.2264L146.973 15.0742Z" fill="#333333"/>
<path d="M32.6706 19.1848C32.6806 21.1726 32.1217 23.1219 31.0598 24.8023C29.9979 26.4828 28.4774 27.8243 26.6778 28.6684C24.8782 29.5126 22.8747 29.8241 20.9038 29.5663C18.9329 29.3084 17.0769 28.492 15.555 27.2133L10.834 31.9348H40.2954C40.5326 31.9348 40.76 31.8405 40.9277 31.6728C41.0954 31.5051 41.1896 31.2777 41.1896 31.0405V7.32682C41.189 7.09003 41.0946 6.86314 40.9269 6.69591C40.7593 6.52868 40.5322 6.43476 40.2954 6.43476H36.3336L30.2337 12.5375C31.8008 14.3987 32.6641 16.7515 32.6728 19.1848H32.6706Z" fill="#61BBFF"/>
<path d="M22.1992 10.6693C20.5983 10.6606 19.0277 11.1059 17.6696 11.9537C16.3114 12.8014 15.2214 14.0168 14.5259 15.4589C13.8304 16.9011 13.5579 18.5108 13.74 20.1015C13.9221 21.6923 14.5514 23.1988 15.5549 24.4464L27.4625 12.5375C25.9714 11.3346 24.115 10.6757 22.1992 10.6693Z" fill="#61BBFF"/>
<path d="M34.7822 32.9129V33.9997H39.1491C39.934 33.9997 40.6866 33.6879 41.2416 33.1329C41.7966 32.5779 42.1083 31.8252 42.1083 31.0402V7.32657C42.1083 6.54166 41.7966 5.7889 41.2416 5.23388C40.6866 4.67887 39.934 4.36706 39.1491 4.36706H29.5367V5.45391L30.6035 5.24142C30.6035 5.2392 30.5061 4.75886 30.1741 3.04558C30.0993 2.61238 29.9822 2.18756 29.8244 1.77722C29.5913 1.14979 29.1273 0.63512 28.5274 0.338417C27.9188 0.0506561 27.2946 0.00195844 26.5731 -0.000255098H15.5353C15.0864 -0.0100515 14.6378 0.0315377 14.1984 0.123703C13.5388 0.260102 12.9588 0.649458 12.5827 1.20834C12.2477 1.77209 12.0273 2.39644 11.9342 3.04558C11.6022 4.75886 11.507 5.2392 11.5048 5.24142L12.5716 5.45391V4.36706H2.9592C2.17437 4.36706 1.42168 4.67887 0.866724 5.23388C0.311766 5.7889 0 6.54166 0 7.32657V31.0402C0 31.8252 0.311766 32.5779 0.866724 33.1329C1.42168 33.6879 2.17437 33.9997 2.9592 33.9997H34.7822V31.826H2.9592C2.75081 31.826 2.55096 31.7433 2.4036 31.5959C2.25625 31.4485 2.17346 31.2487 2.17346 31.0402V7.32657C2.17405 7.11854 2.2571 6.91924 2.40439 6.77235C2.55168 6.62546 2.7512 6.54297 2.9592 6.54297H12.5716C12.8232 6.54322 13.067 6.4562 13.2615 6.29676C13.4561 6.13732 13.5893 5.91532 13.6385 5.66863L14.0678 3.4573C14.1168 3.16523 14.1931 2.87841 14.2958 2.60066C14.422 2.3306 14.4308 2.35717 14.5193 2.29962C14.847 2.19048 15.1931 2.14759 15.5375 2.17344H26.5731C26.855 2.16483 27.137 2.18711 27.4141 2.23985C27.6709 2.31954 27.631 2.31511 27.7174 2.41472C27.8844 2.74081 27.9931 3.09369 28.0383 3.4573C28.3703 5.17501 28.4677 5.6642 28.4699 5.66863C28.5191 5.91511 28.6524 6.13683 28.847 6.2959C29.0416 6.45498 29.2854 6.54153 29.5367 6.54076H39.1491C39.3575 6.54076 39.5574 6.62355 39.7047 6.77092C39.8521 6.91829 39.9349 7.11816 39.9349 7.32657V31.0402C39.9349 31.2487 39.8521 31.4485 39.7047 31.5959C39.5574 31.7433 39.3575 31.826 39.1491 31.826H34.7822V32.9129Z" fill="#333333"/>
<path d="M30.5458 19.1848H29.5698C29.5698 21.1543 28.887 23.0629 27.6378 24.5854C26.3885 26.1079 24.65 27.1502 22.7186 27.5345C20.7871 27.9189 18.7821 27.6216 17.0453 26.6933C15.3084 25.765 13.9471 24.2632 13.1933 22.4436C12.4394 20.6241 12.3397 18.5995 12.9112 16.7147C13.4826 14.8299 14.6898 13.2016 16.327 12.1071C17.9643 11.0126 19.9304 10.5198 21.8903 10.7125C23.8501 10.9052 25.6826 11.7715 27.0754 13.1639C27.8674 13.9535 28.4956 14.892 28.9237 15.9253C29.3517 16.9586 29.5713 18.0663 29.5698 19.1848H31.5264C31.5264 17.114 30.9124 15.0897 29.762 13.3679C28.6117 11.6461 26.9766 10.3042 25.0637 9.5117C23.1507 8.71925 21.0458 8.51191 19.015 8.9159C16.9842 9.31988 15.1188 10.3171 13.6547 11.7813C12.1906 13.2456 11.1935 15.1112 10.7895 17.1422C10.3856 19.1732 10.5929 21.2783 11.3853 23.1915C12.1777 25.1046 13.5195 26.7398 15.2411 27.8903C16.9627 29.0408 18.9868 29.6548 21.0574 29.6548C23.8339 29.6548 26.4967 28.5517 28.4601 26.5882C30.4234 24.6247 31.5264 21.9616 31.5264 19.1848H30.5458Z" fill="#333333"/>
<path d="M35.2737 4.96276C35.1728 4.86163 35.0529 4.7814 34.9209 4.72666C34.7889 4.67192 34.6474 4.64374 34.5046 4.64374C34.3617 4.64374 34.2202 4.67192 34.0882 4.72666C33.9563 4.7814 33.8364 4.86163 33.7354 4.96276L26.9959 11.703C26.9409 11.7679 26.8941 11.8393 26.8564 11.9155C27.3132 12.2449 27.7446 12.6082 28.1468 13.0023L28.3991 13.3299C28.4465 13.3042 28.4916 13.2746 28.5341 13.2414L35.2737 6.50118C35.3748 6.40023 35.455 6.28033 35.5098 6.14834C35.5645 6.01635 35.5927 5.87486 35.5927 5.73197C35.5927 5.58908 35.5645 5.44759 35.5098 5.3156C35.455 5.18361 35.3748 5.06371 35.2737 4.96276Z" fill="#333333"/>
<path d="M8.01869 33.606L15.0349 26.5891C15.1259 26.4981 15.198 26.3901 15.2473 26.2712C15.2965 26.1523 15.3218 26.0249 15.3218 25.8962C15.3218 25.7676 15.2965 25.6401 15.2473 25.5213C15.198 25.4024 15.1259 25.2944 15.0349 25.2034C14.9439 25.1124 14.8359 25.0402 14.717 24.991C14.5982 24.9418 14.4708 24.9164 14.3421 24.9164C14.2135 24.9164 14.0861 24.9418 13.9672 24.991C13.8483 25.0402 13.7403 25.1124 13.6494 25.2034L6.63315 32.2203C6.44942 32.4041 6.34619 32.6533 6.34619 32.9132C6.34619 33.173 6.44942 33.4222 6.63315 33.606C6.81688 33.7897 7.06608 33.893 7.32592 33.893C7.58576 33.893 7.83495 33.7897 8.01869 33.606Z" fill="#333333"/>
<path d="M5.64851 11.6875C6.2866 11.6875 6.80387 11.1702 6.80387 10.532C6.80387 9.89389 6.2866 9.37657 5.64851 9.37657C5.01043 9.37657 4.49316 9.89389 4.49316 10.532C4.49316 11.1702 5.01043 11.6875 5.64851 11.6875Z" fill="#333333"/>
<path d="M32.2147 3.4642H38.3301C38.6183 3.4642 38.8947 3.34969 39.0985 3.14587C39.3023 2.94204 39.4168 2.6656 39.4168 2.37735C39.4168 2.0891 39.3023 1.81265 39.0985 1.60883C38.8947 1.40501 38.6183 1.2905 38.3301 1.2905H32.2147C31.9265 1.2905 31.65 1.40501 31.4462 1.60883C31.2424 1.81265 31.1279 2.0891 31.1279 2.37735C31.1279 2.6656 31.2424 2.94204 31.4462 3.14587C31.65 3.34969 31.9265 3.4642 32.2147 3.4642Z" fill="#333333"/>
</svg>
