<svg width="46" height="32" viewBox="0 0 46 32" fill="none" xmlns="http://www.w3.org/2000/svg">
<rect x="0.5" y="0.5" width="45" height="31" rx="5.5" fill="#1F72CD" stroke="#D9D9D9"/>
<path fill-rule="evenodd" clip-rule="evenodd" d="M8.24624 11.3333L3.94238 20.9956H9.0947L9.73344 19.455H11.1935L11.8322 20.9956H17.5034V19.8198L18.0088 20.9956H20.9424L21.4478 19.7949V20.9956H33.2424L34.6766 19.495L36.0195 20.9956L42.0775 21.008L37.76 16.1914L42.0775 11.3333H36.1135L34.7174 12.8061L33.4167 11.3333H20.5857L19.4839 13.8272L18.3562 11.3333H13.2147V12.4691L12.6427 11.3333H8.24624ZM25.8592 12.7053H32.6322L34.7038 14.9754L36.8421 12.7053H38.9137L35.7662 16.19L38.9137 19.6346H36.7482L34.6766 17.3381L32.5274 19.6346H25.8592V12.7053ZM27.5317 15.4065V14.1409V14.1396H31.7579L33.602 16.1638L31.6762 18.199H27.5317V16.8172H31.2267V15.4065H27.5317ZM9.24319 12.7053H11.7547L14.6094 19.2574V12.7053H17.3606L19.5656 17.4031L21.5977 12.7053H24.3352V19.6387H22.6695L22.6559 14.2057L20.2275 19.6387H18.7375L16.2954 14.2057V19.6387H12.8687L12.2191 18.0843H8.70931L8.06101 19.6373H6.22502L9.24319 12.7053ZM9.3086 16.6474L10.4649 13.8784L11.6199 16.6474H9.3086Z" fill="white"/>
</svg>
