<svg width="46" height="32" viewBox="0 0 46 32" fill="none" xmlns="http://www.w3.org/2000/svg">
<rect x="0.5" y="0.5" width="45" height="31" rx="5.5" fill="white" stroke="#D9D9D9"/>
<path fill-rule="evenodd" clip-rule="evenodd" d="M23.3287 22.876C21.7626 24.247 19.7312 25.0747 17.5114 25.0747C12.5583 25.0747 8.54297 20.9539 8.54297 15.8707C8.54297 10.7875 12.5583 6.66675 17.5114 6.66675C19.7312 6.66675 21.7626 7.49442 23.3287 8.86545C24.8947 7.49442 26.9262 6.66675 29.146 6.66675C34.0991 6.66675 38.1144 10.7875 38.1144 15.8707C38.1144 20.9539 34.0991 25.0747 29.146 25.0747C26.9262 25.0747 24.8947 24.247 23.3287 22.876Z" fill="#ED0006"/>
<path fill-rule="evenodd" clip-rule="evenodd" d="M23.3291 22.876C25.2574 21.1878 26.4802 18.6758 26.4802 15.8707C26.4802 13.0656 25.2574 10.5536 23.3291 8.86545C24.8952 7.49442 26.9266 6.66675 29.1464 6.66675C34.0995 6.66675 38.1148 10.7875 38.1148 15.8707C38.1148 20.9539 34.0995 25.0747 29.1464 25.0747C26.9266 25.0747 24.8952 24.247 23.3291 22.876Z" fill="#F9A000"/>
<path fill-rule="evenodd" clip-rule="evenodd" d="M23.3287 8.86548C25.257 10.5537 26.4798 13.0656 26.4798 15.8707C26.4798 18.6758 25.257 21.1878 23.3288 22.876C21.4005 21.1878 20.1777 18.6758 20.1777 15.8707C20.1777 13.0656 21.4005 10.5537 23.3287 8.86548Z" fill="#FF5E00"/>
</svg>
